<svg xmlns="http://www.w3.org/2000/svg" xmlns:xlink="http://www.w3.org/1999/xlink" width="313" height="176" viewBox="0 0 313 176">
  <defs>
    <rect id="flexible-work-hours-a" width="313" height="176" x="0" y="0"/>
  </defs>
  <g fill="none" fill-rule="evenodd">
    <mask id="flexible-work-hours-b" fill="#fff">
      <use xlink:href="#flexible-work-hours-a"/>
    </mask>
    <g fill-rule="nonzero" mask="url(#flexible-work-hours-b)">
      <g transform="translate(23 15)">
        <path fill="#FFF" d="M219.1514,14.8487 C212.3304,16.3977 210.0084,18.9207 208.5844,26.3377 C208.3354,27.6347 206.6374,27.6347 206.3884,26.3377 C204.9644,18.9207 202.6424,16.3977 195.8214,14.8487 C194.6284,14.5777 194.6284,12.7327 195.8214,12.4617 C202.6424,10.9127 204.9644,8.3897 206.3884,0.9737 C206.6374,-0.3243 208.3354,-0.3243 208.5844,0.9737 C210.0084,8.3897 212.3304,10.9127 219.1514,12.4617 C220.3444,12.7327 220.3444,14.5777 219.1514,14.8487 M31.3447,118.5889 C25.9817,119.8599 24.1567,121.9319 23.0367,128.0199 C22.8417,129.0839 21.5067,129.0839 21.3107,128.0199 C20.1917,121.9319 18.3667,119.8599 13.0037,118.5889 C12.0657,118.3669 12.0657,116.8529 13.0037,116.6299 C18.3667,115.3599 20.1917,113.2869 21.3107,107.1999 C21.5067,106.1359 22.8417,106.1359 23.0367,107.1999 C24.1567,113.2869 25.9817,115.3599 31.3447,116.6299 C32.2827,116.8529 32.2827,118.3669 31.3447,118.5889"/>
        <path fill="#FBE685" d="M45.8818,69.0625 C45.8818,69.0625 76.9548,73.6375 79.2108,43.3635 C81.4388,13.4615 51.3318,12.4995 30.3558,14.1255 C9.3798,15.7525 -0.2262,26.1825 0.0038,42.3165 C0.3448,66.2415 25.0268,69.2345 32.6418,69.3665 C32.6418,69.3665 35.3628,83.6545 48.6428,83.3135 C49.7808,83.2845 50.4288,81.9235 49.6498,81.0585 C47.4018,78.5575 43.2658,74.2175 45.8818,69.0625"/>
        <path fill="#050606" d="M35.5732,30.837 C36.7582,29.401 38.6252,28.345 40.5072,29.052 C42.3802,29.756 42.9002,31.569 42.3372,33.368 C41.6612,35.527 40.0182,37.233 38.7622,39.061 C37.4322,40.999 36.3592,43.267 36.6282,45.676 C36.7292,46.582 37.3312,47.364 38.3162,47.364 C39.1502,47.364 40.1062,46.588 40.0052,45.676 C39.6962,42.912 41.7192,40.709 43.2492,38.631 C44.9142,36.368 46.3402,33.638 45.8512,30.746 C45.4102,28.142 43.1972,26.092 40.6362,25.595 C37.8392,25.052 34.9722,26.283 33.1852,28.449 C32.6062,29.152 32.4972,30.15 33.1852,30.837 C33.7832,31.435 34.9902,31.544 35.5732,30.837 M38.4736,54.5489 C40.6466,54.5489 40.6496,51.1719 38.4736,51.1719 C36.3006,51.1719 36.2976,54.5489 38.4736,54.5489"/>
        <path fill="#DA3E40" d="M19.3887,29.6065 C15.3447,37.8795 16.4827,47.8295 22.5297,54.8185 C28.3357,61.5305 37.8697,64.3025 46.3467,61.5655 C54.5937,58.9035 60.6637,51.1725 60.9477,42.4515 C61.1067,37.5645 59.4327,32.7265 56.9167,28.5895 C54.5687,24.7295 51.4247,21.4375 47.1267,19.8265 C42.5047,18.0925 37.2277,18.4955 32.5607,19.8355 C27.7327,21.2235 23.4387,23.7885 20.5557,27.9745 C19.3597,29.7115 22.1917,31.3485 23.3777,29.6255 C25.4697,26.5865 28.6347,24.5665 32.0937,23.4045 C35.6307,22.2155 39.5277,21.5435 43.2457,22.1695 C51.2337,23.5165 56.4927,31.8185 57.5317,39.4115 C58.5387,46.7725 54.5197,54.0975 47.9157,57.4205 C41.1307,60.8355 32.6187,59.6035 26.9437,54.6245 C20.3307,48.8225 18.3297,39.1945 22.2107,31.2555 C23.1317,29.3735 20.3137,27.7145 19.3887,29.6065"/>
        <path fill="#DA3E40" d="M20.4883,30.3428 C31.0983,38.5468 41.8293,46.5938 52.4393,54.7978 C53.1423,55.3418 54.0633,55.4708 54.7503,54.7978 C55.3203,54.2408 55.4473,53.0268 54.7503,52.4878 C44.1403,44.2828 33.4093,36.2358 22.8003,28.0318 C22.0963,27.4888 21.1753,27.3598 20.4883,28.0318 C19.9193,28.5888 19.7913,29.8038 20.4883,30.3428"/>
        <path fill="#B43231" d="M133.8061,24.4229 C88.6371,24.4229 52.0191,61.7639 52.0191,107.8249 C52.0191,126.3089 57.9211,143.3839 67.9011,157.2089 C69.4591,159.3679 71.9871,160.6149 74.6491,160.6149 L193.7211,160.6149 C195.9071,160.6149 197.9701,159.5819 199.2641,157.8219 C209.5151,143.8909 215.5931,126.5829 215.5931,107.8249 C215.5931,61.7639 178.9751,24.4229 133.8061,24.4229"/>
        <path fill="#E7E7E7" d="M198.2803,108.9336 C198.2803,72.0096 168.9273,42.0776 132.7183,42.0776 C96.5093,42.0776 67.1563,72.0096 67.1563,108.9336 C67.1563,129.7566 76.4933,148.3536 91.1293,160.6156 L174.3083,160.6156 C188.9433,148.3536 198.2803,129.7566 198.2803,108.9336"/>
        <path fill="#050606" d="M185.0898,110.3018 C185.0898,110.3018 186.9758,127.1278 212.7388,129.6688 C213.8038,125.6578 214.5828,121.5308 215.0518,117.3048 L185.0898,110.3018 Z"/>
        <path fill="#7EB450" d="M222.9101,122.9502 C222.9101,122.9502 178.4611,126.4752 180.4161,95.6972 C182.3181,65.7682 214.8671,66.5822 236.7461,68.5702 C258.6251,70.5592 268.4701,81.1532 267.9381,97.2812 C267.1491,121.1962 244.6891,123.4812 236.7331,123.4812 C236.7331,123.4812 235.1391,137.8372 221.2751,137.2652 C220.0871,137.2172 219.4351,135.8462 220.2641,134.9942 C222.6571,132.5332 225.5491,128.1492 222.9101,122.9502"/>
        <path fill="#050606" d="M203.7519,99.71 C207.1169,99.71 207.1229,94.48 203.7519,94.48 C200.3869,94.48 200.3809,99.71 203.7519,99.71 M223.4092,99.3164 C226.7752,99.3164 226.7802,94.0874 223.4092,94.0874 C220.0442,94.0874 220.0382,99.3164 223.4092,99.3164 M243.0669,98.1377 C246.4319,98.1377 246.4379,92.9077 243.0669,92.9077 C239.7009,92.9077 239.6959,98.1377 243.0669,98.1377"/>
        <path fill="#A1A2A2" d="M150.4868,61.2422 C150.4388,58.7682 150.3618,55.7782 150.3078,53.8162 C150.2808,52.8072 151.2888,52.0982 152.2428,52.4492 L159.0548,54.9512 C160.0668,55.3222 160.3218,56.6272 159.5228,57.3462 L153.6798,62.6032 C152.4658,63.6962 150.5188,62.8692 150.4868,61.2422 M115.0967,155.0616 L109.2687,160.3366 C109.1757,160.4216 109.0987,160.5166 109.0337,160.6156 L118.4017,160.6156 C118.3627,159.2246 118.3237,157.7456 118.2937,156.4136 C118.2577,154.7866 116.3077,153.9646 115.0967,155.0616 M85.542,94.4922 C83.077,94.2792 80.095,94.0412 78.139,93.8872 C77.133,93.8072 76.534,92.7302 76.983,91.8182 L80.189,85.3082 C80.666,84.3412 81.99,84.2242 82.62,85.0962 L87.232,91.4602 C88.191,92.7832 87.164,94.6322 85.542,94.4922 M181.1719,122.1084 C183.6439,122.2224 186.6319,122.3424 188.5929,122.4194 C189.6019,122.4584 190.2429,123.5104 189.8299,124.4394 L186.8859,131.0724 C186.4479,132.0574 185.1299,132.2264 184.4649,131.3814 L179.6029,125.2054 C178.5929,123.9214 179.5459,122.0334 181.1719,122.1084"/>
        <path fill="#651A20" d="M135.0654,115.3213 C137.8014,115.3213 140.4224,112.9153 140.2954,110.0913 C140.1694,107.2573 137.9974,104.8603 135.0654,104.8603 C132.3294,104.8603 129.7094,107.2663 129.8354,110.0913 C129.9624,112.9253 132.1334,115.3213 135.0654,115.3213"/>
        <path fill="#651A20" d="M147.0264,70.8936 C142.5614,83.4846 137.7684,95.9556 133.3034,108.5456 C132.8314,109.8766 133.8384,111.4086 135.1304,111.7626 C136.5764,112.1606 137.8734,111.2726 138.3464,109.9366 C142.8124,97.3456 147.6054,84.8746 152.0694,72.2846 C152.5424,70.9526 151.5354,69.4216 150.2434,69.0666 C148.7974,68.6686 147.5004,69.5576 147.0264,70.8936"/>
        <path fill="#651A20" d="M107.6631,103.0186 C116.3431,106.3426 125.1211,109.3846 133.8881,112.4696 C135.2211,112.9386 136.7491,111.9376 137.1051,110.6436 C137.5021,109.1996 136.6161,107.8966 135.2791,107.4266 C126.5121,104.3416 117.7331,101.2996 109.0531,97.9756 C107.7341,97.4696 106.1851,98.5346 105.8361,99.8016 C105.4321,101.2756 106.3391,102.5116 107.6631,103.0186"/>
        <path fill="#050606" d="M0.2637,51.4541 C2.0547,57.5061 6.4327,62.4701 11.8447,65.6111 C18.0877,69.2361 25.4327,70.3891 32.5637,70.3311 C34.0767,70.3191 34.0807,67.9661 32.5637,67.9771 C25.9667,68.0301 19.1857,67.0421 13.3627,63.7681 C8.3287,60.9381 4.1907,56.4271 2.5337,50.8281 C2.1037,49.3791 -0.1683,49.9961 0.2637,51.4541"/>
      </g>
    </g>
  </g>
</svg>
