<svg xmlns="http://www.w3.org/2000/svg" width="313" height="176" viewBox="0 0 313 176">
  <g fill="none" fill-rule="evenodd" transform="translate(15 7)">
    <path stroke="#FFF" stroke-dasharray="12.071" stroke-linecap="round" stroke-width="2.012" d="M84.1031243,58.6680059 C84.1031243,58.6680059 86.1783314,23.1178876 109.00058,13.3665266 C131.823834,3.61516568 152.987325,13.9891893 158.17484,25.6075325"/>
    <path fill="#009FCA" d="M269.764047,169.44755 L33.735645,169.44755 C33.261858,167.042402 32.7790178,164.321396 32.3434556,161.340864 C32.2317988,160.588438 32.120142,159.818911 32.0175385,159.03832 C28.6939882,133.920568 29.0651716,92.7000947 58.6129822,63.152284 C103.946651,17.8196213 168.510438,12.4419882 218.988367,41.0613373 C266.040142,67.730213 282.959669,137.550923 269.764047,169.44755"/>
    <path fill="#00C000" d="M150.694036 52.8839822C150.694036 52.8839822 137.391787 54.7197811 132.554331 65.5504911 127.716876 76.3791893 136.87374 80.3213787 145.85658 69.6264675 154.840426 58.9305503 158.813799 51.5018521 150.694036 52.8839822M269.764047 169.44755L238.711385 169.44755C229.973988 147.84045 253.903751 131.709562 245.788012 126.027136 236.65026 119.629503 219.044698 118.710095 225.442331 102.93329 229.398604 93.2010414 241.44245 79.2077278 250.087302 69.9130533 272.902509 102.125538 279.458071 146.01974 269.764047 169.44755"/>
    <path fill="#00C000" d="M117.141166,84.5565917 C131.618325,80.4051716 123.455308,107.121325 96.5450118,128.525231 C69.6256627,149.938189 56.1151893,151.572805 51.5553669,137.095645 C47.9149527,125.553751 39.9199231,146.512036 31.1453077,150.90387 C29.0741243,125.646296 32.0737692,89.6907929 58.6128817,63.1526864 C81.1403964,40.6251716 108.412822,27.9586627 136.354183,24.4389586 C137.440574,24.8946391 138.452527,25.4609704 139.361876,26.1570651 C149.558858,33.9106746 140.79229,45.7412663 122.945308,62.8649941 C105.107379,79.9977751 102.655959,88.6979527 117.141166,84.5565917"/>
    <path fill="#000" d="M85.7038402,43.6460414 C93.6616509,38.2704201 102.500645,34.4087041 111.853663,32.2308935 C113.744787,31.7913077 112.944077,28.8801834 111.051947,29.3217811 C101.46958,31.5529053 92.3338402,35.5343254 84.1808817,41.0397101 C82.5804675,42.121071 84.0893432,44.7364556 85.7038402,43.6460414"/>
    <path fill="#FFF" d="M19.1477337 146.00103C17.4668462 142.843456 16.3714024 139.399195 15.878503 135.758781 15.8141243 135.248781 15.3403373 134.894698 14.8303373 134.960083 14.3283846 135.034521 13.9662544 135.499254 14.0406923 136.009254 14.5597456 139.871976 15.7306331 143.521444 17.5131183 146.864107 17.6811065 147.179964 17.9959586 147.357006 18.330929 147.357006 18.4787988 147.357006 18.6276746 147.32884 18.767497 147.254402 19.2221716 147.012982 19.3891538 146.446651 19.1477337 146.00103M19.7231183 113.565231C19.2684438 113.324817 18.7021124 113.499846 18.4697456 113.946473 16.630929 117.409846 15.3031183 120.994935 14.5325858 124.606178 14.420929 125.107124 14.736787 125.610083 15.2387396 125.71168 15.3031183 125.730793 15.368503 125.730793 15.4338876 125.730793 15.8603964 125.730793 16.2506923 125.433041 16.3432367 124.996473 17.0866095 121.551207 18.3490355 118.134107 20.1043609 114.819609 20.3457811 114.363929 20.1777929 113.806651 19.7231183 113.565231M34.9989763 97.6777751C34.7193314 97.2402012 34.153 97.1023905 33.7174379 97.3800237 30.5598639 99.3395503 27.6356627 101.80103 25.0072012 104.678959 24.6631775 105.050142 24.6913432 105.644639 25.0625266 105.988663 25.2486213 106.146592 25.4719349 106.230083 25.6942426 106.230083 25.944716 106.230083 26.1951893 106.127479 26.381284 105.932331 28.8890355 103.175112 31.6925266 100.82529 34.7012249 98.9502604 35.1287396 98.6806746 35.2675562 98.104284 34.9989763 97.6777751M53.8860769 92.1804379C50.6822308 91.9199053 47.3958994 92.1804379 44.2011065 92.931858 43.709213 93.052568 43.393355 93.5545207 43.5140651 94.0554675 43.6156627 94.4829822 43.9969053 94.7706746 44.4143609 94.7706746 44.4887988 94.7706746 44.5632367 94.7616213 44.6376746 94.7435148 47.6363136 94.0283077 50.7295089 93.7959408 53.7372012 94.0373609 54.2572604 94.0745799 54.6938284 93.6933373 54.7401006 93.1833373 54.7773195 92.6723314 54.3970828 92.2267101 53.8860769 92.1804379M32.3430533 161.341266C30.5505089 160.412805 27.5880828 158.648426 24.5331124 155.852982 24.161929 155.509964 24.1337633 154.915467 24.477787 154.544284 24.8208047 154.163041 25.4153018 154.135882 25.7864852 154.478899 28.0809822 156.578249 30.3372544 158.073041 32.018142 159.038722 32.1197396 159.818308 32.2313964 160.58884 32.3430533 161.341266"/>
    <path fill="#000" d="M40.0535089,86.0448462 C31.8200769,106.376444 28.2591302,128.580053 29.670432,150.469817 C30.0687751,156.64816 30.8674734,162.798337 32.0353432,168.877095 C32.402503,170.781296 35.3106095,169.975556 34.9454615,168.074373 C30.8785385,146.916917 31.6903136,124.886325 37.2087751,104.064846 C38.7609053,98.2104083 40.6902544,92.4615917 42.9636272,86.847568 C43.6919112,85.0479822 40.7737456,84.2643728 40.0535089,86.0448462"/>
    <path fill="#009D00" d="M67.8404615,93.4987929 L87.3582722,65.2556568 C87.3582722,65.2556568 75.4451953,32.1730533 72.437503,27.7782012 C69.4298107,23.3823432 60.6391006,19.3335266 43.2880355,28.703645 L19.9567929,50.8046509 L67.8404615,93.4987929 Z"/>
    <polygon fill="#005400" points="81.976 73.042 75.3 82.717 63.647 66.222 74.644 56.627"/>
    <path fill="#009FCA" d="M76.5901302,36.8266272 L76.5901302,36.8366864 L51.5548639,65.8171598 L38.0443905,66.931716 L19.9559882,50.8028402 L43.2902485,28.7018343 C60.6372899,19.331716 69.4300118,23.3815385 72.439716,27.782426 C73.2746272,29.0086391 74.8166982,32.4720118 76.5901302,36.8266272"/>
    <path fill="#3ABFD8" d="M58.8078284,57.4233846 L51.5551657,65.8177633 L42.8730947,51.0629704 C41.9355799,49.4746272 40.1893077,48.5270533 38.3414379,48.6296568 L23.7817929,49.3911361 C22.2859941,49.465574 20.9863491,49.9946864 19.955284,50.8024379 L27.4393077,43.7167574 L44.0892485,41.7582367 C44.0892485,41.7582367 51.3972367,42.5840947 53.6535089,47.0785325 C54.8797219,49.5208994 57.0706095,53.9227929 58.8078284,57.4233846"/>
    <path fill="#B50026" d="M240.704408,85.6764793 C240.704408,85.6764793 237.390917,80.8390237 241.978905,54.5805621 C246.567899,28.3210947 266.330148,25.5165976 277.66784,36.9880769 C289.004527,48.4595562 277.298669,68.8163018 265.246775,76.4813905 C253.194882,84.1464793 241.574527,89.0473077 240.704408,85.6764793"/>
    <path fill="#780019" d="M273.236172,52.170787 C273.236172,58.5201361 268.088893,63.6684201 261.739544,63.6684201 C255.390195,63.6684201 250.243923,58.5201361 250.243923,52.170787 C250.243923,45.8214379 255.390195,40.6741598 261.739544,40.6741598 C268.088893,40.6741598 273.236172,45.8214379 273.236172,52.170787"/>
    <path fill="#55AA24" d="M18.7282663,60.3360178 L41.4972012,90.0699231 L67.8401598,93.4990947 L42.8702781,51.0644793 C41.9327633,49.4701006 40.1854852,48.5315799 38.3386213,48.627142 L23.7799822,49.3906331 C18.306787,49.6783254 15.3956627,55.9834142 18.7282663,60.3360178"/>
    <path fill="#94D8E4" d="M51.5522485,65.8184675 L66.5997633,72.0320178 C67.3381065,72.3358047 68.1901183,72.1275799 68.7031361,71.5149763 L92.2114201,43.4921361 C93.0805325,42.4560414 92.5665089,40.8676982 91.2557988,40.5367515 L76.5905325,36.8359822 L51.5522485,65.8184675 Z"/>
    <path fill="#00AFD1" d="M51.5551657,65.8174615 L24.6167041,68.0274615 L18.7300769,60.3392367 C15.3964675,55.9846213 18.3025621,49.6785266 23.7817929,49.3908343 L38.3414379,48.629355 C40.1893077,48.5277574 41.9355799,49.4743254 42.8730947,51.0626686 L51.5551657,65.8174615 Z"/>
    <path fill="#3ABFD8" d="M76.5901302,36.8266272 L76.5901302,36.8366864 L69.7368166,44.7673373 C64.8711953,33.3270414 60.1916686,30.5134911 55.5111361,30.1322485 C52.5768757,29.8898225 44.3494793,31.8966272 38.1560473,33.5684615 L43.2902485,28.7018343 C60.6372899,19.331716 69.4300118,23.3815385 72.439716,27.782426 C73.2746272,29.0086391 74.8166982,32.4720118 76.5901302,36.8266272"/>
    <polygon fill="#00AFD1" points="87.492 49.122 75.819 63.031 58.808 57.423 69.737 44.767"/>
    <path fill="#000" d="M53.1618166,65.6003846 C61.6819349,56.998787 68.1982663,46.7102663 76.2325266,37.6892012 C77.5201006,36.2416864 75.3935917,34.1010947 74.0989763,35.554645 C66.064716,44.576716 59.5473787,54.8652367 51.0272604,63.4668343 C49.6602189,64.8479586 51.7927633,66.9825148 53.1618166,65.6003846"/>
    <path stroke="#FFF" stroke-dasharray="12.071" stroke-linecap="round" stroke-width="2.012" d="M78.4826627,78.1045385 C78.4826627,78.1045385 144.157988,24.4358402 240.704911,85.6760769"/>
    <path fill="#00C000" d="M208.177675,154.24774 C208.177675,154.24774 218.107083,146.156142 214.613533,138.617799 C211.119982,131.07845 202.293059,138.249633 197.880101,147.994959 C193.467142,157.74129 203.361343,159.664604 208.177675,154.24774"/>
    <path fill="#000" d="M237.916609,86.9761243 C240.583296,88.4809763 243.152408,90.1507988 245.609864,91.9775444 C246.245604,92.4493195 247.321935,92.1022781 247.674006,91.4363609 C248.091462,90.6457101 247.811817,89.8761834 247.132822,89.371213 C244.675367,87.5444675 242.106254,85.874645 239.439568,84.3697929 C238.752527,83.9815089 237.759686,84.1836982 237.375426,84.9109763 C236.998207,85.6251775 237.18229,86.5616864 237.916609,86.9761243"/>
    <path fill="#FFF" d="M210.00774 7.3136213L210.00774 1.51048521C210.00774.720840237 209.313657-.0346035503 208.498864.00160946746 207.681053.0388284024 206.989988.664508876 206.989988 1.51048521L206.989988 7.3136213C206.989988 8.10326627 207.684071 8.85871006 208.498864 8.82249704 209.316675 8.78628402 210.00774 8.15959763 210.00774 7.3136213M210.00774 22.5747929L210.00774 16.7706509C210.00774 15.9820118 209.313657 15.2255621 208.498864 15.2617751 207.681053 15.3 206.989988 15.9256805 206.989988 16.7706509L206.989988 22.5747929C206.989988 23.363432 207.684071 24.1198817 208.498864 24.0836686 209.316675 24.0474556 210.00774 23.4207692 210.00774 22.5747929M213.227882 13.5510118L219.031018 13.5510118C219.820663 13.5510118 220.577112 12.8579349 220.539893 12.0421361 220.50368 11.2243254 219.876994 10.5332604 219.031018 10.5332604L213.227882 10.5332604C212.438237 10.5332604 211.682793 11.2273432 211.719006 12.0421361 211.756225 12.8599467 212.381905 13.5510118 213.227882 13.5510118M197.967213 13.5510118L203.770349 13.5510118C204.559994 13.5510118 205.315438 12.8579349 205.279225 12.0421361 205.242006 11.2243254 204.616325 10.5332604 203.770349 10.5332604L197.967213 10.5332604C197.177568 10.5332604 196.421118 11.2273432 196.458337 12.0421361 196.49455 12.8599467 197.121237 13.5510118 197.967213 13.5510118M13.5509112 95.7719645L13.5509112 89.9688284C13.5509112 89.1791834 12.8568284 88.4237396 12.0420355 88.4599527 11.2242249 88.4971716 10.5331598 89.123858 10.5331598 89.9688284L10.5331598 95.7719645C10.5331598 96.5616095 11.2272426 97.3180592 12.0420355 97.2808402 12.8598462 97.2446272 13.5509112 96.6189467 13.5509112 95.7719645M13.5509112 111.033639L13.5509112 105.229497C13.5509112 104.440858 12.8568284 103.684408 12.0420355 103.720621 11.2242249 103.75784 10.5331598 104.384527 10.5331598 105.229497L10.5331598 111.033639C10.5331598 111.822278 11.2272426 112.578728 12.0420355 112.542515 12.8598462 112.505296 13.5509112 111.879615 13.5509112 111.033639M16.7709527 102.009858L22.5740888 102.009858C23.3637337 102.009858 24.1201834 101.316781 24.0829645 100.500982 24.0467515 99.6831716 23.4200651 98.9921065 22.5740888 98.9921065L16.7709527 98.9921065C15.9813077 98.9921065 15.2258639 99.6861893 15.2620769 100.500982 15.2992959 101.318793 15.9249763 102.009858 16.7709527 102.009858M1.51028402 102.009858L7.31342012 102.009858C8.10306509 102.009858 8.85850888 101.316781 8.82229586 100.500982 8.78507692 99.6831716 8.15939645 98.9921065 7.31342012 98.9921065L1.51028402 98.9921065C.720639053 98.9921065-.0358106509 99.6861893.00140828402 100.500982.0376213018 101.318793.664307692 102.009858 1.51028402 102.009858"/>
    <path fill="#FFB100" d="M255.320183 126.433828L255.320183 120.629686C255.320183 119.446728 254.279059 118.313059 253.05687 118.366373 251.830657 118.421698 250.793556 119.362231 250.793556 120.629686L250.793556 126.433828C250.793556 127.617793 251.83468 128.752467 253.05687 128.697142 254.283083 128.641817 255.320183 127.703296 255.320183 126.433828M255.320183 141.694497L255.320183 135.891361C255.320183 134.707396 254.279059 133.573728 253.05687 133.628047 251.830657 133.683373 250.793556 134.622899 250.793556 135.891361L250.793556 141.694497C250.793556 142.878462 251.83468 144.013136 253.05687 143.957811 254.283083 143.902485 255.320183 142.963964 255.320183 141.694497M257.785888 133.426059L263.589024 133.426059C264.772988 133.426059 265.906657 132.384935 265.852337 131.162746 265.797012 129.935527 264.857485 128.899432 263.589024 128.899432L257.785888 128.899432C256.601923 128.899432 255.467249 129.940556 255.522574 131.162746 255.576893 132.388959 256.51642 133.426059 257.785888 133.426059M242.524716 133.426059L248.327852 133.426059C249.511817 133.426059 250.646491 132.384935 250.591166 131.162746 250.536846 129.935527 249.59732 128.899432 248.327852 128.899432L242.524716 128.899432C241.340751 128.899432 240.207083 129.940556 240.261402 131.162746 240.316728 132.388959 241.256254 133.426059 242.524716 133.426059"/>
    <path fill="#000" d="M70.0090178,92.7041183 C73.2732189,88.6985562 75.8735148,84.1769586 78.6236923,79.8153018 L87.3349349,66.0000355 C88.3740473,64.3513373 85.7636923,62.836426 84.7296095,64.476071 L76.2859408,77.8678462 C73.5910888,82.1409822 71.0732781,86.6464852 67.8744615,90.570568 C66.6583077,92.0633491 68.7807929,94.2109822 70.0090178,92.7041183"/>
  </g>
</svg>
