<svg xmlns="http://www.w3.org/2000/svg" xmlns:xlink="http://www.w3.org/1999/xlink" width="313" height="176" viewBox="0 0 313 176">
  <defs>
    <polygon id="sistem-terintegrasi-a" points=".564 .439 17.348 .439 17.348 65.149 .564 65.149"/>
    <polygon id="sistem-terintegrasi-c" points=".213 .369 48.076 .369 48.076 51.536 .213 51.536"/>
    <polygon id="sistem-terintegrasi-e" points="0 .791 96.87 .791 96.87 98.482 0 98.482"/>
  </defs>
  <g fill="none" fill-rule="evenodd" transform="translate(61 1)">
    <g transform="translate(172.11 110.06)">
      <mask id="sistem-terintegrasi-b" fill="#fff">
        <use xlink:href="#sistem-terintegrasi-a"/>
      </mask>
      <path fill="#A75631" d="M16.9598851,65.1491713 C16.9598851,65.1491713 17.8340508,41.1023204 16.9598851,29.7333039 C16.0857193,18.3652597 8.65287956,4.15496133 3.62472486,0.438541436 L0.563686188,43.7248177 L16.9598851,65.1491713 Z" mask="url(#sistem-terintegrasi-b)"/>
    </g>
    <path fill="#006980" d="M173.046603,148.522219 C173.046603,148.522219 178.488018,90.3887381 176.567576,59.6606939 C174.647134,28.9336221 166.965366,33.4940641 147.040415,33.0146829 C127.115465,32.5343293 75.5027359,37.5751249 67.0994652,39.0161856 C58.6981392,40.456274 55.8169901,48.3782188 58.9373436,83.1873238 C62.0586696,117.995456 67.8199956,175.20907 67.8199956,175.20907 L154.96625,175.20907 L173.046603,148.522219 Z"/>
    <path fill="#004758" d="M96.2341746,45.5340199 C102.215257,45.0663072 118.165136,43.898484 127.098351,44.0394785 C128.496628,44.0608707 129.609998,45.2014674 129.609998,46.5997436 L129.609998,47.2979094 C129.609998,48.6952133 128.495655,49.8348376 127.099324,49.8562298 C120.824583,49.9573569 104.406992,50.2480972 96.5735337,50.6399646 C95.1101083,50.7128928 93.8829702,49.5509039 93.8829702,48.0845613 C93.8829702,46.7494895 94.9020199,45.6380641 96.2341746,45.5340199"/>
    <path fill="#B1E5F1" d="M161.641123,146.175876 L160.021145,167.747059 L154.970625,175.20907 L80.0218519,175.20907 C74.9207691,143.465865 71.2539403,84.8384177 70.2037746,66.7444508 C70.0238851,63.6464619 72.3303602,60.9802077 75.4195978,60.6894674 C96.9693878,58.6620641 142.020526,56.8767823 158.028747,56.2836331 C161.243421,56.1640309 163.937874,58.6999867 163.994272,61.9175779 C164.487266,90.2166276 161.641123,146.175876 161.641123,146.175876"/>
    <path fill="#00A813" d="M139.649193,145.085746 L100.102674,147.476818 C97.3479337,147.643094 94.9792265,145.544707 94.8119779,142.789967 L92.7524862,108.727646 L142.277525,105.733702 L144.336044,139.796022 C144.503293,142.550762 142.403934,144.91947 139.649193,145.085746"/>
    <polygon fill="#231F20" points="142.281 105.733 142.939 116.63 93.409 119.624 92.75 108.727"/>
    <path fill="#00ACD4" d="M102.589233,108.133525 L87.6593768,109.03589 L92.9092331,95.1814807 C93.2952663,94.1624309 94.2433326,93.4652376 95.3304486,93.399116 L105.765012,92.7680442 L102.589233,108.133525 Z"/>
    <polygon fill="#66CCE4" points="117.52 107.23 102.589 108.134 105.765 92.768 116.606 92.113"/>
    <polygon fill="#00ACD4" points="132.45 106.328 117.521 107.231 116.606 92.113 127.447 91.458"/>
    <path fill="#66CCE4" d="M147.380747,105.425361 L132.450891,106.328698 L127.447045,91.4581569 L137.881609,90.8261127 C138.968725,90.7609635 139.993609,91.3395271 140.499244,92.3041238 L147.380747,105.425361 Z"/>
    <path fill="#00A813" d="M102.58408,108.132552 C102.83398,112.262232 99.6932066,115.807514 95.5771403,116.05547 C91.4474608,116.30537 87.902179,113.165569 87.6532508,109.03589 L102.58408,108.132552 Z"/>
    <path fill="#00A813" d="M117.514811,107.229507 C117.764712,111.359187 114.623938,114.904469 110.507872,115.152424 C106.378192,115.402325 102.833883,112.262524 102.583982,108.132844 L117.514811,107.229507 Z"/>
    <path fill="#00A813" d="M132.446126,106.327434 C132.696027,110.457114 129.555253,114.002396 125.439187,114.250351 C121.309507,114.500252 117.764225,111.359478 117.515297,107.229799 L132.446126,106.327434 Z"/>
    <path fill="#00A813" d="M147.376955,105.424389 C147.626855,109.554069 144.486082,113.09935 140.370015,113.347306 C136.240336,113.597207 132.696027,110.457406 132.446126,106.327726 L147.376955,105.424389 Z"/>
    <path fill="#0089A9" d="M102.58408,108.132552 C102.83398,112.262232 99.6932066,115.807514 95.5771403,116.05547 C91.4474608,116.30537 87.902179,113.165569 87.6532508,109.03589 L102.58408,108.132552 Z"/>
    <path fill="#009FCA" d="M117.514811,107.229507 C117.764712,111.359187 114.623938,114.904469 110.507872,115.152424 C106.378192,115.402325 102.833883,112.262524 102.583982,108.132844 L117.514811,107.229507 Z"/>
    <path fill="#0089A9" d="M132.446126,106.327434 C132.696027,110.457114 129.555253,114.002396 125.439187,114.250351 C121.309507,114.500252 117.764225,111.359478 117.515297,107.229799 L132.446126,106.327434 Z"/>
    <path fill="#009FCA" d="M147.376955,105.424389 C147.626855,109.554069 144.486082,113.09935 140.370015,113.347306 C136.240336,113.597207 132.696027,110.457406 132.446126,106.327726 L147.376955,105.424389 Z"/>
    <path fill="#BAE17C" d="M123.400893,121.232106 L113.359169,121.838869 C111.833512,121.932217 110.671523,123.242979 110.763898,124.768636 L112.093136,146.751134 L127.658926,145.809874 L126.330661,123.827377 C126.237313,122.302692 124.92655,121.13973 123.400893,121.232106"/>
    <g transform="translate(140.994 123.674)">
      <mask id="sistem-terintegrasi-d" fill="#fff">
        <use xlink:href="#sistem-terintegrasi-c"/>
      </mask>
      <path fill="#A75631" d="M36.0522873,32.516632 C36.0522873,32.516632 32.1170829,23.5532729 27.5255249,18.5241459 C22.9349392,13.4959912 17.688,0.816212155 10.0373481,0.37961547 C2.38475138,-0.0569812155 -3.51756906,13.4959912 3.04110497,25.957958 C9.59977901,38.4189525 12.6598453,40.167284 12.6598453,40.167284 C12.6598453,40.167284 12.2232486,47.1635271 13.9715801,51.5363006 L48.0757127,51.5363006 L36.0522873,32.516632 Z" mask="url(#sistem-terintegrasi-d)"/>
    </g>
    <g transform="translate(0 .182)">
      <mask id="sistem-terintegrasi-f" fill="#fff">
        <use xlink:href="#sistem-terintegrasi-e"/>
      </mask>
      <path fill="#FFF" d="M95.4782497,87.4710276 L92.2246807,73.7624751 C92.2246807,73.7624751 107.12731,41.9531492 83.5491448,13.0366409 C59.970979,-15.8798674 -9.20674475,9.60707182 1.02459227,56.0963536 C12.1544044,106.660862 54.8553105,104.235757 78.4334762,88.4434033 L91.0432442,91.7903204 C93.6793547,92.4894586 96.1073768,90.1246409 95.4782497,87.4710276" mask="url(#sistem-terintegrasi-f)"/>
    </g>
    <path fill="#000" d="M61.2846586,99.2872398 C64.7647912,99.3076597 68.0164155,97.7751956 71.1552442,96.4401238 C74.0986254,95.1886762 76.9428243,93.7126099 79.2726365,91.4819801 C80.6320177,90.1819138 78.5666917,88.1214497 77.2102276,89.4195713 C75.1400398,91.4003006 72.5564376,92.6916155 69.9446365,93.8098475 C67.2239293,94.9747536 64.3019403,96.3876155 61.2846586,96.3701127 C59.4070011,96.3584442 59.4050564,99.2755713 61.2846586,99.2872398"/>
    <path fill="#000" d="M78.3382807 91.7864309C79.1667448 91.825326 80.0272972 92.2590055 80.8139492 92.505989 81.7571536 92.8035359 82.7061923 93.0787182 83.6620376 93.334453 85.5367779 93.8342541 87.4329105 94.2514033 89.3436287 94.5927072 90.1186122 94.7298122 90.9159602 94.382674 91.1386343 93.5736575 91.332137 92.8677127 90.8984575 91.918674 90.1195845 91.7796243 88.1369105 91.4256796 86.1697945 90.9900552 84.2250431 90.464 83.2711425 90.2063204 82.3221039 89.9272486 81.3798718 89.6267845 80.373463 89.3068729 79.4069215 88.9198674 78.3382807 88.8693039 77.5506564 88.8323536 76.8797171 89.5664972 76.8797171 90.3278674 76.8797171 91.1485525 77.5487116 91.7494807 78.3382807 91.7864309M162.490979 133.860641C167.889609 141.088309 173.401034 148.441414 176.791708 156.872884 177.482095 158.593017 180.305874 157.84137 179.603819 156.096928 176.106183 147.398055 170.584062 139.850475 165.009432 132.387492 163.898979 130.901702 161.36594 132.354431 162.490979 133.860641"/>
    <path fill="#00ACD4" d="M37.2872044,51.5420376 C33.6057901,51.6023249 30.5758674,48.6638055 30.5000221,44.9823912 C30.4319558,40.8157613 34.2057459,37.4639823 38.5493481,38.3323138 C41.2710276,38.8768442 43.4083094,41.1804022 43.7836464,43.9302807 C44.3349834,47.9734188 41.256442,51.460358 37.2872044,51.5420376 M55.8605525,49.1937503 L58.7183646,49.1422144 C59.9095249,49.1208221 60.8585635,48.1377503 60.8394096,46.9456177 L60.7584088,41.9651094 C60.7389613,40.771032 59.7529724,39.8190762 58.5579227,39.8404685 L55.6933039,39.8929768 C55.1935028,38.0444906 54.4360221,36.3019934 53.4354475,34.7267448 L55.4336796,32.659474 C56.263116,31.8018387 56.239779,30.4337061 55.3811713,29.6032972 L51.7969945,26.1416398 C50.9374144,25.3102586 49.567337,25.3365127 48.7379006,26.1970652 L46.7552265,28.2575293 C45.1342762,27.3337724 43.3771934,26.621021 41.5141215,26.1980376 L41.4616133,23.323695 C41.440221,22.1325348 40.4581215,21.1834961 39.265989,21.20265 L34.2854807,21.2836508 C33.0904309,21.3030983 32.1384751,22.2890873 32.1598674,23.484137 L32.2114033,26.3487558 C30.3483315,26.8485569 28.6213923,27.6070099 27.0305856,28.6056398 L24.9798453,26.6151867 C24.1212376,25.7828331 22.7511602,25.8042254 21.9207514,26.6647779 L18.4581215,30.2489547 C17.6286851,31.1065901 17.6520221,32.475695 18.5096575,33.3041591 L20.5623425,35.2868331 C19.6385856,36.9077834 18.9258343,38.6658387 18.5018785,40.5289105 L15.6323978,40.5814188 C14.4392928,40.6018387 13.4892818,41.5868552 13.5103197,42.7799602 L13.6001326,47.7663028 C13.6215249,48.957463 14.6026519,49.9065017 15.7938122,49.8889989 L18.6535691,49.845242 C19.1533702,51.6937282 19.9108508,53.4206674 20.910453,55.0105017 L18.9151381,57.0758276 C18.0847293,57.9344354 18.1090387,59.3045127 18.9695912,60.1339492 L22.5566851,63.5917171 C23.4133481,64.4172641 24.7775912,64.3948994 25.6070276,63.5401812 L27.606232,61.4806895 C29.2125967,62.4044464 30.9852376,63.1162254 32.8483094,63.5401812 L32.8998453,66.4096619 C32.9212376,67.6027669 33.9062541,68.5527779 35.0993591,68.5317399 L40.0798674,68.4419271 C41.2729724,68.4205348 42.2229834,67.4355182 42.2015912,66.2424133 L42.1500552,63.389463 C43.9975691,62.8886895 45.7400663,62.1321812 47.3308729,61.1316066 L49.3816133,63.1220597 C50.240221,63.9553856 51.6102983,63.933021 52.4416796,63.0724685 L55.9043094,59.4892641 C56.7337459,58.6306564 56.7094365,57.2634961 55.8518011,56.4330873 L53.7845304,54.4358276 C54.7238453,52.829463 55.4200663,51.0577945 55.8605525,49.1937503"/>
    <path fill="#66CCE4" d="M72.3149967,62.1308199 C70.048389,63.1061127 67.4220022,62.0569193 66.437958,59.7942011 C65.3333392,57.229074 66.8191293,54.1904 69.7323669,53.6225326 C71.557516,53.2666431 73.4692066,54.1495602 74.4017149,55.7578696 C75.773737,58.1236597 74.7537149,61.0689856 72.3149967,62.1308199 M83.2279691,55.9445657 L84.9850519,55.1831956 C85.7182232,54.8662011 86.0566099,54.0163448 85.7405878,53.2822011 L84.4220464,50.2163006 C84.1050519,49.4811845 83.2522785,49.1418254 82.5171624,49.4597923 L80.7542453,50.2221348 C79.9734276,49.2030851 79.0603669,48.3162785 78.0393724,47.5947757 L78.7511514,45.8056044 C79.0467536,45.061737 78.6830851,44.2196597 77.9401901,43.9240575 L74.8363669,42.6920575 C74.0924994,42.3964552 73.2494497,42.7610961 72.9557923,43.5059359 L72.2517923,45.2883006 C71.0110409,45.1288309 69.7411182,45.1346652 68.4780022,45.3456707 L67.7137149,43.5788641 C67.3967204,42.8456928 66.5458917,42.5073061 65.8127204,42.8243006 L62.7468199,44.142842 C62.0107315,44.4588641 61.6713724,45.3116376 61.9893392,46.0467536 L62.7516818,47.8096707 C61.7238807,48.5943779 60.8467978,49.5035492 60.1155713,50.5284331 L58.3370961,49.8176265 C57.5932287,49.5191072 56.7492066,49.8818033 56.4536044,50.6266431 L55.220632,53.7304663 C54.9250298,54.4733613 55.2886983,55.3154387 56.0315934,55.6110409 L57.8081238,56.3169856 C57.6486541,57.5567646 57.6544884,58.8276597 57.8664663,60.0898033 L56.1016044,60.8540906 C55.3674608,61.1710851 55.0300464,62.0228862 55.3470409,62.7570298 L56.6733613,65.8248751 C56.9893834,66.5580464 57.8392398,66.8954608 58.572411,66.5813834 L60.3343558,65.8258475 C61.1142011,66.8448972 62.0243448,67.7210077 63.0492287,68.4522343 L62.3384221,70.2404331 C62.0428199,70.9843006 62.4064884,71.8273503 63.1513282,72.1210077 L66.2551514,73.351063 C66.997074,73.6447204 67.8362343,73.2829967 68.1328088,72.5420464 L68.847505,70.7557923 C70.0775602,70.9191514 71.3572066,70.9094276 72.6203227,70.6974497 L73.3836376,72.4623116 C73.700632,73.1964552 74.5524331,73.534842 75.2865768,73.2168751 L78.3505326,71.8934718 C79.0846762,71.575505 79.423063,70.7237039 79.1050961,69.9895602 L78.3466431,68.2334497 C79.3647204,67.4536044 80.2515271,66.5395713 80.9827536,65.5146873 L82.7612287,66.2264663 C83.5050961,66.5240133 84.3481459,66.1613171 84.6447204,65.4164773 L85.8776928,62.3126541 C86.1723227,61.5697591 85.8096265,60.7286541 85.0667315,60.4330519 L83.2765878,59.7212729 C83.4496707,58.4863558 83.4302232,57.2105989 83.2279691,55.9445657"/>
    <path fill="#004758" d="M138.3184,46.243368 L138.3184,46.243368 C138.3184,47.8730696 139.638886,49.1935558 141.268588,49.1935558 L146.498997,49.1935558 C148.127726,49.1935558 149.449185,47.8730696 149.449185,46.243368 C149.449185,44.6136663 148.127726,43.2931801 146.498997,43.2931801 L141.268588,43.2931801 C139.638886,43.2931801 138.3184,44.6136663 138.3184,46.243368"/>
  </g>
</svg>
