<svg xmlns="http://www.w3.org/2000/svg" width="313" height="176" viewBox="0 0 313 176">
  <g fill="none" fill-rule="evenodd" transform="translate(22 14)">
    <path fill="#F5A6AB" d="M249.3276,128.4429 C243.5496,113.5169 228.6246,90.4069 213.6996,88.4809 C198.7736,86.5549 195.8846,90.4069 195.8846,90.4069 L214.4696,162.3379 L214.4736,162.3519 L251.1536,162.3519 C256.4026,162.3519 260.0446,157.1209 258.2186,152.1999 C255.3556,144.4839 251.5726,134.2419 249.3276,128.4429"/>
    <path fill="#FFF" d="M1.9866 69.9868C12.1936 73.6498 22.4006 77.3118 32.6076 80.9738 33.9816 81.4668 35.5656 80.4178 35.9316 79.0868 36.3436 77.5868 35.4236 76.2568 34.0446 75.7618 23.8376 72.0998 13.6306 68.4368 3.4236 64.7748 2.0496 64.2818.4646 65.3308.0996 66.6628-.3134 68.1618.6076 69.4918 1.9866 69.9868M12.3992 108.7432C20.0162 106.6582 27.6332 104.5722 35.2502 102.4862 38.6012 101.5682 37.1782 96.3522 33.8132 97.2742 26.1962 99.3602 18.5792 101.4452 10.9622 103.5312 7.6112 104.4492 9.0342 109.6642 12.3992 108.7432M36.4993 131.3462C38.2013 129.4292 39.9033 127.5132 41.6053 125.5962 42.0833 125.0582 42.3973 124.4212 42.3973 123.6852 42.3973 123.0222 42.1033 122.2302 41.6053 121.7742 41.0913 121.3012 40.4143 120.9502 39.6953 120.9832 39.0033 121.0132 38.2593 121.2392 37.7833 121.7742 36.0813 123.6912 34.3793 125.6072 32.6773 127.5242 32.1993 128.0622 31.8853 128.6992 31.8853 129.4352 31.8853 130.0982 32.1803 130.8892 32.6773 131.3462 33.1923 131.8192 33.8683 132.1702 34.5883 132.1382 35.2803 132.1072 36.0233 131.8812 36.4993 131.3462"/>
    <path fill="#004757" d="M203.2837,36.4155 C199.1117,18.0595 185.3447,14.3045 175.7487,15.5565 C166.3047,16.7885 92.1917,23.2735 77.5307,25.8645 C73.2347,27.4555 60.2247,34.0335 63.1727,54.6655 C65.3287,69.7615 74.5057,126.0935 80.1207,162.3515 L228.8927,162.3515 C222.1027,128.3845 206.5247,50.6775 203.2837,36.4155"/>
    <path fill="#00ABD6" d="M194.6396,62.1709 C191.2536,46.9349 180.0796,43.8189 172.2916,44.8579 C164.6256,45.8799 104.4736,51.2639 92.5736,53.4139 C89.0876,54.7339 78.5276,60.1939 80.9196,77.3179 C82.5886,89.2589 89.4316,132.2859 94.0156,162.3519 L214.5766,162.3519 C208.7126,132.3769 197.1426,73.4339 194.6396,62.1709"/>
    <path fill="#010101" d="M63.1724,54.666 C60.2244,34.034 73.2354,27.456 77.5304,25.865 C77.2964,25.906 77.0764,25.946 76.8734,25.986 C63.9404,28.489 52.1914,41.839 53.0254,53.104 C53.5504,60.195 65.5634,134.483 70.0914,162.352 L80.1214,162.352 C74.5054,126.093 65.3284,69.761 63.1724,54.666"/>
    <path fill="#2C687D" d="M139.2578 38.9512L103.8408 42.3292C101.2728 42.5742 99.0298 40.3892 98.8328 37.4512 98.6358 34.5112 100.5578 31.9302 103.1258 31.6852L138.5428 28.3072C141.1108 28.0622 143.3528 30.2462 143.5498 33.1852 143.7478 36.1252 141.8258 38.7062 139.2578 38.9512M155.126 37.438L155.126 37.438C152.558 37.683 150.316 35.499 150.118 32.559 149.921 29.62 151.843 27.039 154.411 26.793 156.98 26.549 159.221 28.733 159.418 31.672 159.616 34.611 157.694 37.193 155.126 37.438"/>
    <path fill="#FFF" d="M189.3017,105.1489 C189.3017,128.3839 170.4657,147.2209 147.2297,147.2209 C123.9937,147.2209 105.1577,128.3839 105.1577,105.1489 C105.1577,81.9129 123.9937,63.0769 147.2297,63.0769 C170.4657,63.0769 189.3017,81.9129 189.3017,105.1489"/>
    <path fill="#00ABD6" d="M166.1352,106.4277 L166.3832,108.0797 C166.5362,109.1017 165.8262,110.0627 164.8042,110.2167 C163.7832,110.3697 162.8222,109.6587 162.6692,108.6367 L162.4222,106.9847 C161.7702,106.5697 161.3062,105.8797 161.1842,105.0627 C160.9532,103.5217 162.0102,102.0907 163.5522,101.8597 C165.0932,101.6287 166.5232,102.6867 166.7542,104.2277 C166.8762,105.0447 166.6352,105.8407 166.1352,106.4277 M174.4482,98.8027 C173.2052,93.1787 167.9252,89.6227 162.1782,90.6737 L134.0272,94.8947 C133.0062,95.0477 132.0452,94.3377 131.8922,93.3167 C131.7392,92.2947 132.4492,91.3337 133.4702,91.1807 L161.9922,86.9037 C161.2592,83.2747 157.8772,79.7177 154.2652,79.6897 C145.6712,79.4777 137.2962,80.7337 129.1422,83.4557 C124.6102,84.8957 121.7712,90.0107 121.7152,94.7087 C121.7162,103.7077 123.0352,112.5097 125.6712,121.0947 C127.1302,125.7567 132.4072,129.6737 137.3152,129.4887 C147.9252,129.2077 158.3412,127.6457 168.3822,124.8307 C172.9432,123.5957 175.3532,118.9057 175.5952,114.1797 C175.7552,108.9157 175.3722,103.7127 174.4482,98.8027"/>
    <path fill="#F5A6AB" d="M103.8667,154.3604 C108.2927,145.9614 117.2167,139.2084 117.285337,130.7984 C117.3697,120.4894 108.9167,119.9084 108.9167,119.9084 C92.0807,117.6624 77.5527,137.7794 69.3567,152.3484 C67.9007,149.8344 65.7007,147.9034 62.4827,146.9674 C53.0117,144.2124 44.9797,150.5414 39.5977,156.9804 C37.8737,154.8144 35.6277,153.1254 32.6937,152.5494 C24.0567,150.8574 16.6447,158.7784 13.7967,162.3514 L99.6857,162.3514 C100.9837,159.8494 102.3907,157.1614 103.8667,154.3604"/>
    <path fill="#050606" d="M72.2534,150.0977 C73.1254,148.8147 71.0434,147.6107 70.1774,148.8847 C67.2984,153.1187 64.9574,157.6407 62.9974,162.3517 L65.5834,162.3517 C67.4254,158.0707 69.6234,153.9657 72.2534,150.0977"/>
    <path fill="#000" d="M63.7854,161.8281 L65.2394,161.8281 C67.1244,157.4991 69.3374,153.4551 71.8204,149.8031 C72.0934,149.4021 71.8344,149.1391 71.6564,149.0171 C71.4344,148.8681 70.9304,148.7071 70.6094,149.1791 C68.0284,152.9751 65.7924,157.1201 63.7854,161.8281 L63.7854,161.8281 Z M65.9274,162.8751 L62.2124,162.8751 L62.5144,162.1501 C64.6254,157.0751 66.9914,152.6401 69.7444,148.5901 C70.3904,147.6401 71.5154,147.6551 72.2444,148.1521 C72.9124,148.6061 73.2784,149.5211 72.6864,150.3921 C70.1794,154.0781 67.9514,158.1711 66.0634,162.5581 L65.9274,162.8751 Z"/>
    <path fill="#050606" d="M36.9995,162.1079 C37.0045,162.1019 37.0015,162.1049 37.0065,162.0989 C37.0435,162.0519 37.0805,162.0039 37.1175,161.9569 C37.4425,161.5439 37.7785,161.1379 38.1295,160.7449 C38.4685,160.3639 38.8225,159.9949 39.1925,159.6419 C39.3815,159.4609 39.5755,159.2849 39.7745,159.1139 C39.8785,159.0239 39.9845,158.9359 40.0915,158.8479 C40.1345,158.8139 40.1775,158.7789 40.2205,158.7449 C40.2275,158.7389 40.2225,158.7419 40.2285,158.7369 C40.2355,158.7329 40.2305,158.7359 40.2395,158.7299 C40.2425,158.7269 40.2455,158.7239 40.2495,158.7209 C40.2705,158.7029 40.2805,158.6939 40.2645,158.7069 C40.5105,158.5169 40.7045,158.3269 40.7915,158.0119 C40.8705,157.7239 40.8345,157.3409 40.6705,157.0859 C40.3525,156.5919 39.5615,156.2479 39.0255,156.6539 C37.1235,158.0979 35.6265,159.9039 34.2305,161.8279 C34.1205,161.9809 34.0815,162.1629 34.0745,162.3519 L36.8155,162.3519 C36.8765,162.2709 36.9375,162.1899 36.9995,162.1079"/>
    <path fill="#000" d="M36.8152,161.8955 L37.0612,162.0275 L36.7052,161.6345 C37.0382,161.2115 37.3812,160.7975 37.7382,160.3965 C38.0872,160.0045 38.4512,159.6255 38.8312,159.2635 C39.0262,159.0765 39.2272,158.8945 39.4322,158.7175 C39.5402,158.6245 39.6492,158.5335 39.7602,158.4425 L39.9002,158.3305 L40.2352,158.6745 L39.9452,158.2915 C40.1622,158.1245 40.2452,158.0225 40.2862,157.8735 C40.3312,157.7115 40.3052,157.4855 40.2302,157.3695 C40.1172,157.1935 39.8892,157.0455 39.6762,157.0075 C39.5412,156.9845 39.4292,157.0045 39.3422,157.0715 C37.4752,158.4875 36.0422,160.2465 34.8782,161.8285 L36.5942,161.7765 L36.6902,161.8285 L36.8152,161.8285 L36.8152,161.8955 Z M37.0752,162.8745 L33.5312,162.8745 L33.5512,162.3325 C33.5632,162.0065 33.6472,161.7415 33.8072,161.5205 C35.0542,159.8015 36.6122,157.8285 38.7092,156.2375 C39.0292,155.9945 39.4382,155.9045 39.8582,155.9765 C40.3592,156.0655 40.8392,156.3815 41.1102,156.8015 C41.3472,157.1705 41.4202,157.6995 41.2962,158.1505 C41.2272,158.3995 41.1142,158.5935 40.9792,158.7545 L41.0002,158.7815 L40.7232,159.0085 C40.6932,159.0345 40.6632,159.0595 40.6322,159.0835 L40.4822,159.2055 C40.3192,159.3375 40.2162,159.4235 40.1162,159.5105 C39.9242,159.6755 39.7372,159.8455 39.5542,160.0205 C39.1942,160.3635 38.8502,160.7225 38.5202,161.0935 C38.1762,161.4785 37.8472,161.8765 37.5282,162.2815 L37.0062,162.0995 L37.4332,162.4015 L37.0752,162.8745 Z"/>
    <path fill="#050606" d="M212.104,140.6108 L178.08,136.1078 C178.08,136.1078 180.583,147.6098 205.812,151.0318 C205.812,151.0318 209.127,157.4118 213.353,162.4158 L221.263,162.4158 L212.104,140.6108 Z"/>
    <path fill="#F5A6AB" d="M235.4658,143.9341 C235.4658,143.9341 230.1128,121.7601 214.8208,118.7021 C199.5278,115.6431 175.6988,109.9261 174.2958,127.8771 C173.0378,143.9581 203.7338,145.4631 203.7338,145.4631 C203.7338,145.4631 206.0508,154.4881 211.7168,162.3511 L245.1368,162.3511 L235.4658,143.9341 Z"/>
    <path fill="#050606" d="M219.2602 121.4434C221.0772 122.5194 222.5192 123.6974 223.9672 125.3014 224.6892 126.1014 225.1372 126.6814 225.7252 127.5744 226.3192 128.4754 226.8392 129.4214 227.2902 130.4014 227.6052 131.0864 228.5942 131.2564 229.2002 130.9014 229.9032 130.4904 230.0172 129.6794 229.7002 128.9924 227.7962 124.8544 224.5852 121.3514 220.6692 119.0334 220.0202 118.6494 219.1382 118.8854 218.7602 119.5334 218.3762 120.1904 218.6102 121.0584 219.2602 121.4434M186.4756 51.0791L171.0966 76.2921C171.0966 76.2921 184.5646 79.4061 193.8246 72.2511 193.8246 72.2511 200.6786 74.4271 211.1006 73.9681 209.0246 63.7661 207.1546 54.6541 205.7066 47.7261L194.5166 47.0161 186.4756 51.0791z"/>
    <path fill="#FFE575" d="M166.6011,31.146 C168.9001,0.818 206.7211,-2.505 231.9551,1.242 C257.1901,4.988 266.7031,15.658 268.2161,31.381 C269.2231,41.832 264.1031,65.108 235.5651,67.439 C200.3601,70.314 191.7171,65.142 191.7171,65.142 C191.7171,65.142 186.5621,77.469 171.2591,76.372 C169.9701,76.28 169.4331,74.693 170.4141,73.865 C172.0141,72.515 174.0411,70.594 175.6221,68.401 C178.2431,64.765 178.5861,59.972 177.2381,57.88 C177.2381,57.88 165.2031,49.595 166.6011,31.146"/>
    <path fill="#00ABD6" d="M245.7158,37.2231 L245.7468,38.5721 C245.7658,39.4051 245.0998,40.1031 244.2658,40.1221 C243.4328,40.1411 242.7358,39.4741 242.7158,38.6411 L242.6858,37.2921 C242.2058,36.8941 241.9038,36.2941 241.8888,35.6281 C241.8608,34.3701 242.8528,33.3321 244.1108,33.3031 C245.3678,33.2741 246.4058,34.2661 246.4348,35.5241 C246.4498,36.1901 246.1758,36.8041 245.7158,37.2231 M253.1458,31.9601 C252.7208,27.3301 248.8528,23.9471 244.1448,24.2071 L221.1738,24.7321 C220.3408,24.7511 219.6428,24.0851 219.6238,23.2521 C219.6048,22.4181 220.2708,21.7201 221.1038,21.7011 L244.3778,21.1691 C244.1588,18.1881 241.8118,14.9961 238.9218,14.6081 C232.0618,13.5671 225.2278,13.7231 218.4218,15.0771 C214.6468,15.7701 211.8538,19.5781 211.3328,23.3351 C210.4218,30.5411 210.5858,37.7231 211.8258,44.8661 C212.5208,48.7471 216.3498,52.4181 220.2988,52.7681 C228.8228,53.6191 237.3228,53.4241 245.6488,52.1881 C249.4268,51.6611 251.8328,48.1501 252.5058,44.3901 C253.1668,40.1911 253.3878,35.9861 253.1458,31.9601"/>
    <path d="M129.143,83.456 C124.61,84.895 121.771,90.011 121.715,94.709 L121.715,94.709 C121.716,103.708 123.035,112.51 125.672,121.095 L125.672,121.095 C127.13,125.757 132.408,129.673 137.316,129.489 L137.316,129.489 C147.925,129.208 158.341,127.646 168.382,124.83 L168.382,124.83 C172.943,123.595 175.353,118.906 175.595,114.18 L175.595,114.18 C175.755,108.915 175.372,103.713 174.448,98.802 L174.448,98.802 C173.206,93.179 167.925,89.622 162.179,90.673 L162.179,90.673 L134.027,94.895 C133.007,95.048 132.045,94.337 131.892,93.317 L131.892,93.317 C131.738,92.295 132.449,91.333 133.47,91.181 L133.47,91.181 L161.992,86.904 C161.258,83.275 157.877,79.718 154.265,79.69 L154.265,79.69 C153.646,79.675 153.027,79.667 152.41,79.667 L152.41,79.667 C144.465,79.667 136.709,80.93 129.143,83.456 L129.143,83.456 Z M162.67,108.637 L162.422,106.984 C161.77,106.57 161.307,105.88 161.184,105.063 L161.184,105.063 C160.953,103.522 162.011,102.091 163.552,101.859 L163.552,101.859 C165.093,101.628 166.522,102.687 166.754,104.227 L166.754,104.227 C166.876,105.045 166.636,105.84 166.135,106.428 L166.135,106.428 L166.383,108.08 C166.536,109.102 165.827,110.063 164.804,110.216 L164.804,110.216 C164.711,110.23 164.618,110.237 164.526,110.237 L164.526,110.237 C163.614,110.237 162.809,109.565 162.67,108.637 L162.67,108.637 Z"/>
    <path fill="#004757" d="M201.6455,30.3428 L196.1405,30.6138 L195.9165,26.0718 L195.8695,25.1078 C195.8035,23.7688 194.6645,22.7358 193.3245,22.8018 L189.8235,22.9738 C188.4835,23.0398 187.4515,24.1798 187.5175,25.5188 L187.5645,26.4828 L187.7885,31.0248 L182.2825,31.2958 C180.9435,31.3618 179.9105,32.5008 179.9765,33.8408 L180.1485,37.3418 C180.2145,38.6808 181.3545,39.7138 182.6935,39.6478 L188.1995,39.3768 L188.4705,44.8828 C188.5365,46.2218 189.6755,47.2548 191.0155,47.1888 L194.5165,47.0158 C195.8555,46.9498 196.8885,45.8108 196.8225,44.4708 L196.5515,38.9658 L202.0565,38.6948 C203.3965,38.6288 204.4285,37.4888 204.3625,36.1498 L204.1905,32.6488 C204.1245,31.3088 202.9855,30.2768 201.6455,30.3428"/>
  </g>
</svg>
