<svg xmlns="http://www.w3.org/2000/svg" xmlns:xlink="http://www.w3.org/1999/xlink" width="314" height="152" viewBox="0 0 314 152">
  <defs>
    <rect id="[kenapa-gabung]-5--bengkel-belajar-a" width="314" height="152" x="0" y="0"/>
    <path id="[kenapa-gabung]-5--bengkel-belajar-c" d="M32.011,0.544 L21.497,13.795 L1.001,84.43 C-0.13,88.326 2.112,92.401 6.009,93.533 L6.009,93.533 C9.906,94.663 13.981,92.421 15.111,88.524 L15.111,88.524 L35.607,17.889 L33.816,1.068 C33.754,0.502 33.28,0.161 32.797,0.161 L32.797,0.161 C32.511,0.161 32.221,0.28 32.011,0.544 L32.011,0.544 Z"/>
    <path id="[kenapa-gabung]-5--bengkel-belajar-e" d="M0.995,11.416 C-0.139,15.327 2.12,19.4 6.009,20.529 L6.009,20.529 C7.954,21.093 9.947,20.825 11.589,19.92 L11.589,19.92 C13.213,19.009 14.506,17.535 15.093,15.618 L15.093,15.618 L18.249,4.742 L4.121,0.643 L0.995,11.416 Z"/>
    <path id="[kenapa-gabung]-5--bengkel-belajar-g" d="M5.005,0.537 L0.762,5.874 L7.535,7.838 L6.807,1.059 C6.746,0.494 6.273,0.153 5.79,0.153 L5.79,0.153 C5.504,0.153 5.214,0.273 5.005,0.537 L5.005,0.537 Z"/>
    <polygon id="[kenapa-gabung]-5--bengkel-belajar-i" points="2.493 8.791 .986 13.985 15.108 18.082 16.617 12.886 15.537 2.838 13.505 2.249 8.76 .872"/>
    <polygon id="[kenapa-gabung]-5--bengkel-belajar-k" points="0 .029 6.388 .029 6.388 2.439 0 2.439"/>
  </defs>
  <g fill="none" fill-rule="evenodd">
    <mask id="[kenapa-gabung]-5--bengkel-belajar-b" fill="#fff">
      <use xlink:href="#[kenapa-gabung]-5--bengkel-belajar-a"/>
    </mask>
    <g mask="url(#[kenapa-gabung]-5--bengkel-belajar-b)">
      <g transform="translate(40 5)">
        <g transform="translate(14 .52)">
          <path fill="#00AED6" d="M180.7625,40.1868 L34.5385,21.9378 C29.8475,21.3528 25.5705,24.6808 24.9845,29.3728 L12.5845,128.7328 C11.9995,133.4238 15.3275,137.7018 20.0185,138.2878 L79.1225,145.6638 L176.2255,145.6638 L188.1965,49.7408 C188.7825,45.0488 185.4535,40.7718 180.7625,40.1868"/>
          <path fill="#A4A4A4" d="M17.7381,124.6994 L16.9411,131.0824 C16.7501,132.6144 17.8371,134.0114 19.3691,134.2024 L111.2041,145.6634 L171.5761,145.6634 L171.7931,143.9254 L17.7381,124.6994 Z"/>
          <path fill="#E7E7E7" d="M181.0555,48.178 C174.7875,45.955 158.0535,40.51 142.1465,39.57 C117.1675,38.093 106.2605,42.202 106.2605,42.202 L93.6225,143.469 C93.6225,143.469 109.3095,140.504 126.6145,142.116 C136.1775,143.007 144.9185,144.348 152.0755,145.663 L171.5765,145.663 L183.2895,51.803 C183.4875,50.219 182.5605,48.711 181.0555,48.178"/>
          <path fill="#E7E7E7" d="M29.2347,32.5774 L16.9987,130.6244 C16.9987,130.6244 37.1607,130.1614 61.9757,134.0494 C79.1457,136.7394 93.6227,143.4694 93.6227,143.4694 L106.2607,42.2024 C106.2607,42.2024 96.6977,35.5384 72.1217,30.8304 C56.4727,27.8324 38.9127,28.9984 32.2907,29.6124 C30.7007,29.7604 29.4327,30.9934 29.2347,32.5774"/>
          <path fill="#A4A4A4" d="M29.516 117.9582C48.118 115.8962 67.349 118.6752 84.497 126.2302 85.482 126.6642 86.639 126.5192 87.225 125.5152 87.721 124.6682 87.5 123.2242 86.51 122.7872 72.621 116.6682 57.524 113.4432 42.344 113.3122 38.058 113.2742 33.775 113.4992 29.516 113.9712 28.446 114.0902 27.522 114.8032 27.522 115.9652 27.522 116.9502 28.439 118.0782 29.516 117.9582M31.4281 102.6369C50.0301 100.5739 69.2611 103.3539 86.4091 110.9079 87.3941 111.3419 88.5511 111.1969 89.1371 110.1939 89.6331 109.3459 89.4121 107.9029 88.4221 107.4659 74.5331 101.3469 59.4361 98.1209 44.2561 97.9909 39.9701 97.9529 35.6871 98.1769 31.4281 98.6499 30.3581 98.7679 29.4341 99.4809 29.4341 100.6429 29.4341 101.6289 30.3511 102.7559 31.4281 102.6369M33.3402 87.3157C51.9422 85.2527 71.1732 88.0327 88.3212 95.5867 89.3062 96.0207 90.4632 95.8757 91.0492 94.8727 91.5452 94.0247 91.3242 92.5807 90.3342 92.1437 76.4452 86.0247 61.3482 82.7997 46.1682 82.6697 41.8822 82.6317 37.5992 82.8557 33.3402 83.3277 32.2702 83.4467 31.3462 84.1597 31.3462 85.3217 31.3462 86.3067 32.2632 87.4347 33.3402 87.3157M109.2909 102.1448C127.8929 100.0818 147.1239 102.8618 164.2729 110.4158 165.2569 110.8498 166.4139 110.7048 166.9999 109.7018 167.4959 108.8538 167.2759 107.4098 166.2849 106.9728 152.3959 100.8538 137.2989 97.6288 122.1189 97.4988 117.8329 97.4608 113.5499 97.6848 109.2909 98.1578 108.2209 98.2758 107.2969 98.9888 107.2969 100.1508 107.2969 101.1358 108.2139 102.2638 109.2909 102.1448M111.203 86.8225C129.805 84.7605 149.036 87.5395 166.185 95.0945 167.169 95.5285 168.326 95.3825 168.912 94.3795 169.408 93.5325 169.188 92.0885 168.197 91.6515 154.308 85.5325 139.211 82.3075 124.031 82.1765 119.745 82.1385 115.462 82.3635 111.203 82.8355 110.133 82.9545 109.209 83.6675 109.209 84.8295 109.209 85.8145 110.126 86.9415 111.203 86.8225M113.1151 71.5012C131.7171 69.4382 150.9481 72.2182 168.0971 79.7722 169.0811 80.2062 170.2381 80.0612 170.8241 79.0582 171.3201 78.2102 171.1001 76.7662 170.1091 76.3302 156.2201 70.2112 141.1231 66.9852 125.9431 66.8552 121.6571 66.8172 117.3741 67.0412 113.1151 67.5142 112.0451 67.6322 111.1211 68.3452 111.1211 69.5072 111.1211 70.4932 112.0381 71.6202 113.1151 71.5012M115.0272 56.1789C133.6292 54.1169 152.8602 56.8959 170.0092 64.4509 170.9932 64.8849 172.1502 64.7399 172.7362 63.7359 173.2322 62.8889 173.0122 61.4449 172.0212 61.0079 158.1322 54.8889 143.0352 51.6639 127.8552 51.5329 123.5692 51.4959 119.2862 51.7199 115.0272 52.1919 113.9572 52.3109 113.0332 53.0239 113.0332 54.1859 113.0332 55.1709 113.9502 56.2989 115.0272 56.1789"/>
          <path fill="#B3E7F3" d="M91.0414 80.1389C90.8064 82.0219 88.9144 83.2299 87.1094 82.6409 81.7434 80.8899 71.1954 77.6869 62.9484 76.6579 54.6664 75.6239 43.6294 75.8759 38.0394 76.1019 36.1704 76.1769 34.6834 74.5619 34.9144 72.7059L38.7554 41.9239C38.9324 40.5079 40.0734 39.4049 41.4954 39.2849 46.1854 38.8929 56.9384 38.2689 67.5734 39.5969 78.3564 40.9429 88.6884 44.8739 92.9984 46.6699 94.2504 47.1929 94.9914 48.4849 94.8234 49.8309L91.0414 80.1389zM106.3866 113.7395L104.5466 128.4855C104.4136 129.5525 105.3066 130.4625 106.3746 130.3405 109.0316 130.0335 113.6056 129.5545 116.4036 129.5355 121.0196 129.5025 126.3676 129.8495 128.9556 130.0435 129.8376 130.1095 130.6056 129.4705 130.7156 128.5935L132.5706 113.7275C132.6786 112.8625 132.1076 112.0595 131.2516 111.8945 129.1156 111.4835 124.8066 110.8245 118.9576 110.7815 113.5326 110.7415 109.3606 111.8005 107.5306 112.3635 106.9086 112.5545 106.4676 113.0945 106.3866 113.7395"/>
          <path fill="#A4A4A4" d="M142.575 118.3655C150.04 119.7335 157.285 121.7455 164.445 124.2525 166.871168 125.1015 167.914 121.2515 165.504 120.4065 158.346 117.8995 151.1 115.8885 143.635 114.5205 142.577 114.3265 141.486 114.8105 141.183 115.9135 140.917 116.8815 141.511 118.1705 142.575 118.3655M140.4891 131.7903C148.0311 133.0723 155.4781 135.2243 162.8031 137.4003 165.2681 138.1333 166.3221 134.2853 163.8641 133.5563 156.5381 131.3793 149.0911 129.2273 141.5491 127.9453 140.4891 127.7653 139.4021 128.2273 139.0961 129.3383 138.8341 130.2953 139.4221 131.6083 140.4891 131.7903"/>
          <path fill="#FFD51C" d="M45.1419,12.9143 C51.3969,24.4473 47.1189,38.8673 35.5859,45.1223 C24.0529,51.3773 9.6329,47.0993 3.3779,35.5663 C-2.8771,24.0333 1.4019,9.6133 12.9339,3.3583 C24.4669,-2.8967 38.8869,1.3823 45.1419,12.9143"/>
          <polygon fill="#FFD51C" points="46.071 45.713 30.362 54.233 12.492 44.879 47.977 25.633"/>
          <path fill="#000" d="M39.2723,27.303 C39.7863,28.761 38.4213,30.279 37.4183,31.16 C37.4153,31.162 37.4193,31.159 37.4183,31.161 C37.3963,31.175 37.3773,31.188 37.3243,31.224 C37.2103,31.301 37.0953,31.375 36.9803,31.45 C36.7503,30.466 36.5913,29.487 36.6723,28.576 C36.7913,27.243 38.5263,25.191 39.2723,27.303 M23.1413,38.298 C22.7533,38.348 21.5013,38.27 20.9083,37.847 C20.4503,37.52 20.1253,36.806 20.4973,36.275 C20.8603,35.756 21.7413,35.789 22.2713,35.946 C23.0253,36.167 23.5423,36.844 24.0743,37.443 C24.2043,37.588 24.3193,37.745 24.4473,37.893 C24.3213,37.937 24.1993,37.993 24.0723,38.035 C23.8203,38.119 23.1153,38.301 23.1413,38.298 M43.0093,48.661 C41.2583,44.377 39.6263,40.025 38.2343,35.61 C38.1153,35.229 37.9753,34.818 37.8393,34.41 C38.1993,34.177 38.5683,33.954 38.9153,33.707 C41.8333,31.627 44.1313,26.47 40.3013,24.021 C38.2693,22.721 35.7643,23.699 34.5803,25.651 C33.6333,27.212 33.6163,28.946 33.8993,30.681 C34.0253,31.449 34.2043,32.211 34.3853,32.973 C33.4993,33.474 32.6133,33.977 31.7133,34.453 C30.2763,35.216 28.8143,35.996 27.3203,36.699 C25.7203,34.705 23.9473,32.635 21.1143,32.928 C18.9993,33.147 17.3923,34.725 17.4071959,36.906 C17.4243,39.4 19.5383,40.892 21.8223,41.182 C23.3883,41.381 24.9623,40.971 26.4803,40.353 C29.5883,44.276 32.5443,48.328 35.4533,52.402 C36.5493,53.937 39.1153,52.462 38.0063,50.91 C35.1473,46.907 32.2243,42.939 29.1763,39.074 C29.6423,38.834 30.1013,38.597 30.5433,38.377 C32.0873,37.608 33.6693,36.826 35.2113,35.982 C35.8563,38.047 36.6043,40.086 37.3323,42.088 C38.2303,44.557 39.1653,47.015 40.1593,49.448 C40.8693,51.185 43.7303,50.425 43.0093,48.661"/>
          <path fill="#A2A3A3" d="M49.4925,50.7287 L32.7005,59.8357 C31.2965,60.5977 29.5405,60.0777 28.7795,58.6727 L28.6575,58.4477 C27.8955,57.0427 28.4165,55.2887 29.8205,54.5267 L46.6125,45.4187 C48.0165,44.6577 49.7725,45.1787 50.5335,46.5827 L50.6565,46.8077 C51.4175,48.2117 50.8965,49.9677 49.4925,50.7287"/>
          <path fill="#A2A3A3" d="M52.3724,56.0393 L35.5804,65.1463 C34.1764,65.9083 32.4214,65.3873 31.6594,63.9823 L31.5374,63.7583 C30.7754,62.3533 31.2964,60.5983 32.7014,59.8363 L49.4924,50.7283 C50.8964,49.9683 52.6524,50.4883 53.4144,51.8933 L53.5364,52.1173 C54.2974,53.5213 53.7764,55.2773 52.3724,56.0393"/>
          <path fill="#A2A3A3" d="M51.8309,56.3332 C54.1839,60.6712 52.5749,66.0952 48.2369,68.4472 C43.8989,70.8002 38.4749,69.1902 36.1229,64.8532 C33.7689,60.5152 35.3789,55.0912 39.7169,52.7382 C44.0549,50.3862 49.4779,51.9952 51.8309,56.3332"/>
          <path fill="#000" d="M34.6595 60.4553C39.4795 57.8423 44.3985 55.3763 49.1305 52.6063 50.7715 51.6453 49.2855 49.0903 47.6385 50.0543 42.9065 52.8233 37.9875 55.2893 33.1675 57.9023 31.4935 58.8093 32.9845 61.3623 34.6595 60.4553M36.8788 66.1409C41.3368 63.7969 45.7238 61.3099 50.1518 58.9089 50.9578 58.4719 51.7598 58.0259 52.5768 57.6099 54.2728 56.7449 52.7778 54.1939 51.0848 55.0569 46.5628 57.3619 42.1518 59.9079 37.6958 62.3369 36.9268 62.7559 36.1618 63.1809 35.3868 63.5889 33.7018 64.4749 35.1948 67.0269 36.8788 66.1409"/>
          <path fill="#FFE985" d="M10.5325 10.9211C6.1395 14.5251 4.4395 21.0781 5.5715 26.5151 5.8675 27.9371 7.6185 28.8911 8.9805 28.4501 10.4835 27.9641 11.2335 26.5651 10.9165 25.0411 10.8685 24.8141 10.8415 24.5821 10.7935 24.3561 10.9895 25.2811 10.8175 24.4801 10.7985 24.2151 10.7615 23.6931 10.7575 23.1701 10.7795 22.6491 10.7915 22.3751 10.8105 22.1031 10.8375 21.8301 10.8475 21.7221 10.9155 21.2191 10.8455 21.7001 10.7725 22.2021 10.8585 21.6311 10.8685 21.5661 10.9625 20.9971 11.0865 20.4341 11.2425 19.8791 11.3215 19.5971 11.4095 19.3171 11.5055 19.0411 11.5845 18.8121 11.9795 17.9971 11.6095 18.7121 11.8695 18.2101 12.0875 17.6931 12.3785 17.2051 12.5315 16.9491 12.6925 16.6991 12.8645 16.4551 13.0965 16.1241 12.9925 16.3201 12.8045 16.5131 12.9075 16.4071 12.9945 16.2771 13.0905 16.1651 13.5035 15.6831 13.9605 15.2431 14.4515 14.8411 15.5775 13.9171 15.4805 11.8651 14.4515 10.9211 13.2555 9.8231 11.7335 9.9371 10.5325 10.9211M10.8909 38.3713C14.4569 38.3713 14.4629 32.8283 10.8909 32.8283 7.3239 32.8283 7.3179 38.3713 10.8909 38.3713"/>
        </g>
        <g transform="translate(197 46.52)">
          <mask id="[kenapa-gabung]-5--bengkel-belajar-d" fill="#fff">
            <use xlink:href="#[kenapa-gabung]-5--bengkel-belajar-c"/>
          </mask>
          <polygon fill="#FFC41C" points="18.101 -16.264 54.565 -5.684 20.998 110.001 -15.466 99.42" mask="url(#[kenapa-gabung]-5--bengkel-belajar-d)"/>
        </g>
        <g transform="translate(197 119.52)">
          <mask id="[kenapa-gabung]-5--bengkel-belajar-f" fill="#fff">
            <use xlink:href="#[kenapa-gabung]-5--bengkel-belajar-e"/>
          </mask>
          <polygon fill="#FF8C98" points="-3.813 -13.778 32.669 -3.192 21.007 36.999 -15.475 26.413" mask="url(#[kenapa-gabung]-5--bengkel-belajar-f)"/>
        </g>
        <g transform="translate(224 46.52)">
          <mask id="[kenapa-gabung]-5--bengkel-belajar-h" fill="#fff">
            <use xlink:href="#[kenapa-gabung]-5--bengkel-belajar-g"/>
          </mask>
          <polygon fill="#004656" points="-5.239 -15.209 23.889 -6.757 15.469 22.259 -13.658 13.807" mask="url(#[kenapa-gabung]-5--bengkel-belajar-h)"/>
        </g>
        <g transform="translate(216 51.52)">
          <mask id="[kenapa-gabung]-5--bengkel-belajar-j" fill="#fff">
            <use xlink:href="#[kenapa-gabung]-5--bengkel-belajar-i"/>
          </mask>
          <polygon fill="#C8664A" points="-2.835 -14.611 33.643 -4.027 23.044 32.503 -13.434 21.918" mask="url(#[kenapa-gabung]-5--bengkel-belajar-j)"/>
        </g>
        <g transform="translate(0 2.52)">
          <polygon fill="#004656" points="214.081 125.984 199.895 121.869 201.122 117.643 215.307 121.759"/>
          <path fill="#FFF" d="M210.8494 26.2209C211.4234 26.2209 212.0044 25.8349 212.0044 25.0989L212.0044 21.2199C212.0044 20.4829 211.4224 20.0969 210.8484 20.0969 210.5504 20.0969 210.2704 20.1969 210.0614 20.3759 209.8204 20.5829 209.6934 20.8749 209.6934 21.2199L209.6934 25.0989C209.6934 25.4439 209.8204 25.7359 210.0614 25.9429 210.2714 26.1219 210.5514 26.2209 210.8494 26.2209M207.2708 27.8928L203.3948 27.6418C202.9938 27.6158 202.6568 27.7698 202.4528 28.0778 202.2228 28.4208 202.1998 28.9168 202.3958 29.3128 202.5818 29.6908 202.9368 29.9228 203.3688 29.9518L207.2448 30.2038C207.2738 30.2058 207.3028 30.2058 207.3318 30.2058 207.6948 30.2058 207.9968 30.0518 208.1868 29.7678 208.4158 29.4238 208.4388 28.9268 208.2438 28.5328 208.0568 28.1548 207.7028 27.9208 207.2708 27.8928M219.0169 27.7551L215.0249 27.7551C214.2879 27.7551 213.9019 28.3371 213.9019 28.9111 213.9019 29.4841 214.2879 30.0661 215.0249 30.0661L219.0169 30.0661C219.7539 30.0661 220.1399 29.4841 220.1399 28.9091 220.1399 28.3361 219.7539 27.7551 219.0169 27.7551M211.6473 31.6145C211.2603 31.4125 210.7623 31.4275 210.4083 31.6505 210.0883 31.8535 209.9223 32.1905 209.9393 32.6005L210.1283 36.9995 210.1203 37.0495C210.1093 37.1125 210.0953 37.1915 210.1063 37.2905L210.1563 37.7085C210.2413 38.4355 210.8423 38.8025 211.4013 38.8025 211.4343 38.8025 211.4683 38.8015 211.5003 38.7995 212.0023 38.7595 212.4953 38.3965 212.4653 37.6765L212.2503 32.5835C212.2313 32.1575 212.0123 31.8045 211.6473 31.6145"/>
          <g transform="translate(0 91)">
            <mask id="[kenapa-gabung]-5--bengkel-belajar-l" fill="#fff">
              <use xlink:href="#[kenapa-gabung]-5--bengkel-belajar-k"/>
            </mask>
            <path fill="#FFF" d="M6.3885,1.2336 C6.3885,0.6336 5.9865,0.0286 5.2175,0.0286 L1.1715,0.0286 C0.4025,0.0286 -0.0005,0.6346 -0.0005,1.2336 C-0.0005,1.5456 0.1035,1.8376 0.2915,2.0546 C0.5065,2.3056 0.8115,2.4386 1.1715,2.4386 L5.2175,2.4386 C5.5775,2.4386 5.8815,2.3056 6.0975,2.0546 C6.2855,1.8366 6.3885,1.5446 6.3885,1.2336" mask="url(#[kenapa-gabung]-5--bengkel-belajar-l)"/>
          </g>
          <path fill="#FFF" d="M8.1331 95.967L7.8701 100.011C7.8431 100.428 8.0051 100.779 8.3241 100.993 8.6831 101.233 9.2011 101.256 9.6131 101.053 10.0081 100.858 10.2511 100.488 10.2801 100.037L10.5431 95.993C10.5451 95.963 10.5461 95.933 10.5461 95.904 10.5461 95.524 10.3851 95.209 10.0881 95.011 9.7301 94.772 9.2121 94.748 8.8001 94.951 8.4051 95.147 8.1621 95.517 8.1331 95.967M7.9891 83.7121L7.9891 87.8771C7.9891 88.6461 8.5961 89.0481 9.1951 89.0481 9.7941 89.0481 10.4001 88.6461 10.4001 87.8771L10.4001 83.7121C10.4001 82.9421 9.7931 82.5401 9.1941 82.5401 8.5951 82.5401 7.9891 82.9421 7.9891 83.7121M12.015 91.4006C11.804 91.8036 11.819 92.3246 12.053 92.6936 12.265 93.0266 12.617 93.2006 13.044 93.1826L17.633 92.9856 17.685 92.9936C17.752 93.0046 17.834 93.0196 17.936 93.0076L18.373 92.9566C19.131 92.8676 19.515 92.2406 19.515 91.6576 19.515 91.6226 19.513 91.5876 19.51 91.5536 19.469 91.0306 19.091 90.5156 18.34 90.5466L13.026 90.7716C12.582 90.7916 12.214 91.0196 12.015 91.4006M85.7728 11.0159C86.7418 11.0159 87.7218 10.3659 87.7218 9.1219L87.7218 2.5799C87.7218 1.3359 86.7398.6859 85.7718.6859 85.2688.6859 84.7968.8529 84.4438 1.1569 84.0378 1.5049 83.8228 1.9969 83.8228 2.5799L83.8228 9.1219C83.8228 9.7039 84.0378 10.1979 84.4438 10.5459 84.7978 10.8499 85.2708 11.0159 85.7728 11.0159M79.7357 13.8371L73.1957 13.4121C72.5207 13.3691 71.9527 13.6291 71.6077 14.1481 71.2197 14.7271 71.1817 15.5651 71.5107 16.2321 71.8257 16.8691 72.4237 17.2631 73.1527 17.3101L79.6927 17.7331C79.7407 17.7371 79.7897 17.7381 79.8387 17.7381 80.4517 17.7381 80.9607 17.4801 81.2797 16.9991 81.6677 16.4191 81.7067 15.5811 81.3767 14.9151 81.0627 14.2771 80.4637 13.8841 79.7357 13.8371M99.5521 13.6047L92.8171 13.6047C91.5731 13.6047 90.9231 14.5857 90.9231 15.5547 90.9231 16.5227 91.5731 17.5017 92.8171 17.5017L99.5521 17.5017C100.7961 17.5017 101.4471 16.5217 101.4471 15.5527 101.4471 14.5837 100.7961 13.6047 99.5521 13.6047M87.119 20.1145C86.467 19.7735 85.625 19.7985 85.028 20.1765 84.49 20.5185 84.208 21.0885 84.238 21.7785L84.557 29.1985 84.543 29.2845C84.524 29.3905 84.501 29.5245 84.52 29.6895L84.603 30.3955C84.746 31.6225 85.761 32.2415 86.704 32.2415 86.76 32.2415 86.816 32.2395 86.871 32.2355 87.718 32.1675 88.55 31.5565 88.499 30.3435L88.136 21.7495C88.105 21.0315 87.735 20.4355 87.119 20.1145"/>
        </g>
      </g>
    </g>
  </g>
</svg>
