<svg xmlns="http://www.w3.org/2000/svg" xmlns:xlink="http://www.w3.org/1999/xlink" width="314" height="152" viewBox="0 0 314 152">
  <defs>
    <rect id="[kenapa-gabung]-4--cairin-penghasilan-a" width="314" height="152" x="0" y="0"/>
    <polygon id="[kenapa-gabung]-4--cairin-penghasilan-c" points=".987 .716 37.27 .716 37.27 33.143 .987 33.143"/>
    <path id="[kenapa-gabung]-4--cairin-penghasilan-e" d="M1.262,8.715 C-1.343,16.376 8.646,26.697 23.567,31.766 L23.567,31.766 C38.49,36.837 52.701,34.732 55.302,27.071 L55.302,27.071 L58.198,19.25 L53.551,18.123 C50.049,12.657 42.542,7.263 32.993,4.02 L32.993,4.02 C24.439,1.112 16.127,0.573 10.095,2.081 L10.095,2.081 L4.158,0.895 L1.262,8.715 Z"/>
    <path id="[kenapa-gabung]-4--cairin-penghasilan-g" d="M1.159,7.894 C-1.442,15.555 8.543,25.876 23.466,30.944 L23.466,30.944 C38.39,36.017 52.599,33.912 55.199,26.249 L55.199,26.249 C57.802,18.585 47.814,8.264 32.894,3.196 L32.894,3.196 C27.391,1.327 21.988,0.433 17.226,0.433 L17.226,0.433 C9.073,0.434 2.803,3.055 1.159,7.894 L1.159,7.894 Z"/>
    <path id="[kenapa-gabung]-4--cairin-penghasilan-i" d="M1.706,0.97 C1.322,1.192 0.956,1.635 0.856,2.075 L0.856,2.075 C0.623,3.09 1.163,4.021 2.145,4.346 L2.145,4.346 C3.498,4.789 4.871,5.16 6.264,5.454 L6.264,5.454 C6.752,5.558 7.254,5.525 7.691,5.27 L7.691,5.27 C8.071,5.04 8.436,4.604 8.536,4.165 L8.536,4.165 C8.647,3.689 8.625,3.161 8.355,2.74 L8.355,2.74 C8.1,2.352 7.72,1.99 7.251,1.894 L7.251,1.894 C5.858,1.598 4.481,1.229 3.129,0.786 L3.129,0.786 C2.986,0.738 2.828,0.716 2.666,0.716 L2.666,0.716 C2.327,0.716 1.971,0.813 1.706,0.97 L1.706,0.97 Z"/>
    <path id="[kenapa-gabung]-4--cairin-penghasilan-k" d="M6.794,0.869 C4.921,1.059 2.882,1.464 1.527,2.889 L1.527,2.889 C0.314,4.16 0.005,5.84 0.237,7.529 L0.237,7.529 C0.721,11.072 3.477,14.019 6.081,16.257 L6.081,16.257 C6.665,16.764 7.27,17.237 7.883,17.701 L7.883,17.701 C7.996,17.789 8.113,17.873 8.233,17.964 L8.233,17.964 C8.202,17.94 8.057,17.819 8.15,17.89 L8.15,17.89 C8.26,17.975 8.368,18.068 8.475,18.157 L8.475,18.157 C9.361,18.858 10.274,19.553 11.304,20.037 L11.304,20.037 C12.205,20.469 13.3,20.292 13.831,19.379 L13.831,19.379 C14.3,18.574 14.074,17.277 13.17,16.849 L13.17,16.849 C12.294,16.435 11.389,15.781 10.887,15.386 L10.887,15.386 C10.089,14.743 9.258,14.148 8.486,13.468 L8.486,13.468 C6.93,12.106 5.623,10.746 4.629,9.077 L4.629,9.077 C4.473,8.808 4.33,8.533 4.193,8.254 L4.193,8.254 C4.195,8.259 4.197,8.263 4.198,8.268 L4.198,8.268 C4.231,8.345 4.228,8.355 4.198,8.268 L4.198,8.268 C4.192,8.253 4.184,8.236 4.175,8.217 L4.175,8.217 C4.164,8.193 4.153,8.17 4.141,8.146 L4.141,8.146 C4.154,8.172 4.166,8.196 4.175,8.217 L4.175,8.217 C4.181,8.229 4.187,8.241 4.193,8.254 L4.193,8.254 C4.185,8.229 4.175,8.198 4.164,8.16 L4.164,8.16 C4.097,7.939 4.028,7.721 3.972,7.499 L3.972,7.499 C3.934,7.333 3.898,7.167 3.865,6.998 L3.865,6.998 C3.862,6.987 3.86,6.976 3.858,6.964 L3.858,6.964 C3.86,6.975 3.862,6.986 3.865,6.998 L3.865,6.998 C3.928,7.31 3.839,6.699 3.835,6.62 L3.835,6.62 C3.832,6.47 3.848,6.321 3.846,6.171 L3.846,6.171 C3.844,6.183 3.841,6.195 3.839,6.207 L3.839,6.207 C3.865,5.956 3.868,5.937 3.846,6.154 L3.846,6.154 C3.846,6.16 3.846,6.165 3.846,6.171 L3.846,6.171 C3.863,6.091 3.883,6.013 3.905,5.929 L3.905,5.929 C3.918,5.886 3.93,5.843 3.944,5.801 L3.944,5.801 C3.887,5.917 3.903,5.871 3.99,5.667 L3.99,5.667 C3.973,5.71 3.958,5.755 3.944,5.801 L3.944,5.801 C3.944,5.799 3.945,5.798 3.946,5.796 L3.946,5.796 C3.992,5.721 4.181,5.467 4.117,5.525 L4.117,5.525 C4.076,5.568 4.036,5.611 3.997,5.656 L3.997,5.656 C4.062,5.581 4.099,5.541 4.117,5.525 L4.117,5.525 C4.169,5.471 4.222,5.419 4.277,5.367 L4.277,5.367 C4.282,5.36 4.317,5.327 4.4,5.253 L4.4,5.253 C4.358,5.291 4.317,5.329 4.277,5.367 L4.277,5.367 C4.262,5.388 4.468,5.224 4.522,5.194 L4.522,5.194 C4.581,5.161 5.168,4.887 4.836,5.021 L4.836,5.021 C5.006,4.95 5.183,4.895 5.361,4.839 L5.361,4.839 C5.845,4.698 6.38,4.606 6.794,4.562 L6.794,4.562 C7.788,4.462 8.641,3.786 8.641,2.715 L8.641,2.715 C8.641,1.838 7.87,0.862 6.93,0.862 L6.93,0.862 C6.885,0.862 6.84,0.864 6.794,0.869 L6.794,0.869 Z"/>
    <path id="[kenapa-gabung]-4--cairin-penghasilan-m" d="M50.468,2.498 C44.34,0.334 35.105,0.685 25.578,3.988 L25.578,3.988 C17.041,6.95 10.151,11.631 6.313,16.522 L6.313,16.522 L0.901,19.229 L3.417,27.183 C6.07,34.83 20.291,36.843 35.178,31.678 L35.178,31.678 C50.07,26.518 59.992,16.131 57.34,8.482 L57.34,8.482 L54.824,0.534 L50.468,2.498 Z"/>
    <path id="[kenapa-gabung]-4--cairin-penghasilan-o" d="M23.06,3.033 C8.172,8.201 -1.75,18.581 0.898,26.232 L0.898,26.232 C3.551,33.876 17.773,35.888 32.665,30.724 L32.665,30.724 C47.551,25.563 57.478,15.175 54.825,7.533 L54.825,7.533 C53.167,2.751 46.988,0.172 38.947,0.172 L38.947,0.172 C34.129,0.173 28.641,1.099 23.06,3.033 L23.06,3.033 Z"/>
    <path id="[kenapa-gabung]-4--cairin-penghasilan-q" d="M15.109,0.455 C11.156,1.604 6.956,1.969 2.874,1.393 L2.874,1.393 C1.884,1.253 0.891,1.637 0.598,2.686 L0.598,2.686 C0.363,3.551 0.894,4.814 1.892,4.955 L1.892,4.955 C6.654,5.634 11.46,5.361 16.092,4.016 L16.092,4.016 C17.049,3.739 17.647,2.716 17.378,1.744 L17.378,1.744 C17.162,0.949 16.395,0.387 15.589,0.387 L15.589,0.387 C15.429,0.387 15.268,0.409 15.109,0.455 L15.109,0.455 Z"/>
  </defs>
  <g fill="none" fill-rule="evenodd">
    <mask id="[kenapa-gabung]-4--cairin-penghasilan-b" fill="#fff">
      <use xlink:href="#[kenapa-gabung]-4--cairin-penghasilan-a"/>
    </mask>
    <g mask="url(#[kenapa-gabung]-4--cairin-penghasilan-b)">
      <g transform="translate(50 3)">
        <g transform="translate(52 .284)">
          <path fill="#FFB31C" d="M96.4873,8.2435 C100.0313,12.4425 95.3093,22.2575 85.9413,30.1645 C76.5723,38.0715 66.1043,41.0775 62.5603,36.8785 C59.0163,32.6795 63.7373,22.8645 73.1063,14.9575 C82.4753,7.0505 92.9433,4.0445 96.4873,8.2435"/>
          <polygon fill="#FFB31C" points="62.56 36.878 58.164 31.246 92.092 2.612 96.487 8.243"/>
          <polygon fill="#FFB31C" points="62.56 36.878 58.164 31.246 92.092 2.612 96.487 8.243"/>
          <g transform="translate(56)">
            <mask id="[kenapa-gabung]-4--cairin-penghasilan-d" fill="#fff">
              <use xlink:href="#[kenapa-gabung]-4--cairin-penghasilan-c"/>
            </mask>
            <path fill="#FFC41C" d="M36.0918,2.6127 C39.6358,6.8117 34.9138,16.6267 25.5458,24.5337 C16.1768,32.4397 5.7088,35.4457 2.1648,31.2467 C-1.3792,27.0477 3.3418,17.2337 12.7108,9.3267 C22.0798,1.4197 32.5478,-1.5863 36.0918,2.6127" mask="url(#[kenapa-gabung]-4--cairin-penghasilan-d)"/>
          </g>
          <path fill="#F09A00" d="M84.2588,7.5346 C86.2798,10.5606 80.8888,15.9336 78.9558,17.9126 C75.7388,21.2066 70.2378,25.3576 65.6608,26.2096 C63.2968,26.6486 63.7038,30.7846 67.3468,29.5696 C73.3278,27.5766 79.7998,23.0756 83.6578,18.2106 C86.1238,15.1006 90.1308,9.5486 87.5388,5.6686 C86.2148,3.6846 82.9198,5.5286 84.2588,7.5346"/>
          <path fill="#B3E7F3" d="M110.9077,58.6986 L103.1207,51.0706 L65.3457,46.3566 L27.5707,41.6416 L18.1477,47.1216 C14.0727,49.4916 11.3377,53.6296 10.7537,58.3076 L0.2017,142.8576 C-0.0833,145.1396 0.2947,147.3476 1.1647,149.3076 L105.5977,149.3076 L115.3257,71.3576 C115.9097,66.6796 114.2757,61.9976 110.9077,58.6986"/>
          <path fill="#F09A00" d="M69.5059,129.7357 L41.7349,126.2697 C40.2149,126.0807 39.1369,124.6947 39.3269,123.1747 L39.7349,119.9057 C39.9239,118.3857 41.3099,117.3077 42.8289,117.4977 L70.6009,120.9637 C72.1199,121.1527 73.1979,122.5387 73.0089,124.0577 L72.6009,127.3277 C72.4109,128.8467 71.0259,129.9247 69.5059,129.7357"/>
          <path fill="#FFC41C" d="M44.565,126.6234 L16.794,123.1574 C15.274,122.9684 14.196,121.5824 14.386,120.0624 L14.794,116.7924 C14.983,115.2724 16.369,114.1944 17.888,114.3854 L45.66,117.8514 C47.179,118.0404 48.257,119.4264 48.068,120.9454 L47.66,124.2154 C47.47,125.7344 46.085,126.8124 44.565,126.6234"/>
          <path fill="#F07600" d="M67.3164 147.2807L39.5454 143.8147C38.0254 143.6257 36.6394 144.7037 36.4504 146.2227L36.0654 149.3077 69.6474 149.3077C69.3604 148.2547 68.4664 147.4257 67.3164 147.2807M68.4112 138.5082L40.6402 135.0422C39.1202 134.8532 38.0422 133.4672 38.2322 131.9472L38.6402 128.6782C38.8292 127.1582 40.2152 126.0802 41.7342 126.2702L69.5062 129.7362C71.0252 129.9252 72.1032 131.3112 71.9142 132.8302L71.5062 136.1012C71.3162 137.6202 69.9312 138.6982 68.4112 138.5082"/>
          <path fill="#F09A00" d="M67.3164,147.2816 L39.5454,143.8156 C38.0254,143.6256 36.9474,142.2406 37.1364,140.7206 L37.5454,137.4506 C37.7344,135.9306 39.1204,134.8526 40.6394,135.0426 L68.4114,138.5086 C69.9304,138.6986 71.0084,140.0836 70.8184,141.6026 L70.4114,144.8736 C70.2214,146.3926 68.8364,147.4706 67.3164,147.2816"/>
          <path fill="#FFB31C" d="M42.3755,144.1684 L14.6045,140.7024 C13.0845,140.5134 11.6985,141.5914 11.5095,143.1104 L11.1015,146.3804 C10.9395,147.6744 11.7015,148.8634 12.8675,149.3084 L44.5285,149.3084 L44.7835,147.2634 C44.9725,145.7434 43.8955,144.3574 42.3755,144.1684"/>
          <path fill="#FFC41C" d="M45.2085 144.5219L17.4365 141.0559C15.9175 140.8669 14.8395 139.4809 15.0285 137.9609L15.4375 134.6919C15.6265 133.1719 17.0125 132.0939 18.5315 132.2839L46.3035 135.7499C47.8225 135.9389 48.9005 137.3249 48.7105 138.8439L48.3025 142.1149C48.1135 143.6339 46.7275 144.7109 45.2085 144.5219M90.4077 132.3441L62.6367 128.8781C61.1167 128.6891 60.0387 127.3031 60.2287 125.7831L60.6367 122.5141C60.8257 120.9941 62.2117 119.9161 63.7317 120.1061L91.5027 123.5721C93.0217 123.7611 94.0997 125.1471 93.9107 126.6661L93.5027 129.9371C93.3127 131.4561 91.9277 132.5331 90.4077 132.3441"/>
          <path fill="#F07600" d="M72.2466,121.101 L44.4756,117.635 C42.9556,117.446 41.8776,116.06 42.0666,114.54 L42.4756,111.27 C42.6646,109.75 44.0506,108.672 45.5696,108.863 L73.3416,112.329 C74.8606,112.518 75.9386,113.903 75.7486,115.422 L75.3406,118.693 C75.1516,120.212 73.7666,121.29 72.2466,121.101"/>
          <path fill="#FFB31C" d="M58.9053 149.0258L58.8703 149.3078 83.5543 149.3078 62.0003 146.6178C60.4803 146.4278 59.0953 147.5058 58.9053 149.0258M94.502 141.765L66.731 138.299C65.211 138.109 64.133 136.724 64.323 135.204L64.731 131.934C64.92 130.414 66.306 129.336 67.826 129.526L95.597 132.992C97.116 133.182 98.194 134.567 98.005 136.086L97.597 139.357C97.407 140.876 96.022 141.954 94.502 141.765"/>
          <path fill="#FFC41C" d="M88.2183,149.89 L60.4473,146.424 C58.9273,146.234 57.8493,144.849 58.0393,143.329 L58.4473,140.059 C58.6363,138.539 60.0223,137.461 61.5413,137.651 L89.3133,141.117 C90.8323,141.307 91.9103,142.692 91.7213,144.211 L91.3133,147.482 C91.1233,149.001 89.7383,150.079 88.2183,149.89"/>
          <path fill="#FFB31C" d="M40.2471 134.9935L12.4761 131.5275C10.9561 131.3385 9.8781 129.9525 10.0671 128.4325L10.4761 125.1635C10.6651 123.6435 12.0511 122.5655 13.5701 122.7555L41.3421 126.2215C42.8611 126.4105 43.9391 127.7965 43.7491 129.3155L43.3411 132.5855C43.1521 134.1045 41.7671 135.1825 40.2471 134.9935M67.4785 106.1664C69.1395 110.9294 61.8725 117.7944 51.2455 121.5004 40.6195 125.2064 30.6585 124.3504 28.9975 119.5874 27.3365 114.8234 34.6035 107.9584 45.2295 104.2524 55.8565 100.5464 65.8175 101.4024 67.4785 106.1664"/>
          <polygon fill="#FFB31C" points="28.998 119.587 27.077 113.316 65.557 99.896 67.479 106.166"/>
          <polygon fill="#FFB31C" points="28.998 119.587 27.077 113.316 65.557 99.896 67.479 106.166"/>
          <path fill="#FFC41C" d="M65.5567,99.8959 C67.2177,104.6589 59.9507,111.5249 49.3247,115.2309 C38.6987,118.9369 28.7377,118.0799 27.0767,113.3169 C25.4147,108.5539 32.6827,101.6889 43.3087,97.9829 C53.9347,94.2769 63.8957,95.1329 65.5567,99.8959"/>
          <path fill="#F09A00" d="M57.856,100.4818 C58.684,104.1238 52.668,107.1628 50.089,108.3498 C45.798,110.3268 40.849,111.4828 36.149,110.6198 C33.722,110.1738 33.255,113.9778 35.675,114.4218 C42.039,115.5908 49.005,113.6078 54.486,110.3588 C57.99,108.2828 62.71,104.5978 61.649,99.9278 C61.107,97.5428 57.308,98.0688 57.856,100.4818"/>
          <path fill="#000" d="M48.6304,101.2367 L32.8894,103.3307 C35.2924,101.5647 38.2914,99.9177 41.6874,98.5807 L48.6304,101.2367 Z"/>
          <path fill="#F06400" d="M110.0567,51.9281 L20.6367,40.7691 C17.8697,40.4241 15.9067,37.9011 16.2517,35.1331 L17.5037,25.0991 C17.8487,22.3321 20.3717,20.3681 23.1397,20.7141 L112.5597,31.8731 C115.3267,32.2191 117.2897,34.7421 116.9447,37.5091 L115.6927,47.5431 C115.3477,50.3111 112.8247,52.2741 110.0567,51.9281"/>
          <path fill="#000" d="M24.8081,44.014 C51.7491,47.156 78.6231,50.826 105.5491,54.09 C108.2201,54.413 108.7431,50.265 106.0671,49.941 C79.1411,46.677 52.2671,43.006 25.3261,39.865 C22.6541,39.553 22.1301,43.702 24.8081,44.014"/>
          <path fill="#FFB31C" d="M68.0537,86.3519 C70.0157,90.9979 80.0107,91.2179 90.3787,86.8409 C100.7467,82.4649 107.5607,75.1499 105.5987,70.5019 C103.6377,65.8549 93.6427,65.6359 83.2747,70.0129 C72.9067,74.3889 66.0917,81.7049 68.0537,86.3519"/>
          <polygon fill="#FFB31C" points="105.599 70.502 102.82 64.563 65.274 80.412 68.054 86.352"/>
          <polygon fill="#FFB31C" points="105.599 70.502 102.82 64.563 65.274 80.412 68.054 86.352"/>
          <path fill="#FFC41C" d="M65.2744,80.4125 C67.2364,85.0585 77.2314,85.2785 87.5994,80.9015 C97.9674,76.5245 104.7814,69.2095 102.8204,64.5625 C100.8584,59.9155 90.8634,59.6965 80.4954,64.0725 C70.1274,68.4495 63.3134,75.7655 65.2744,80.4125"/>
          <path fill="#F09A00" d="M68.2749,77.9252 C70.7759,82.1242 76.9719,81.5642 81.0419,80.6452 C87.1769,79.2602 93.3529,76.0912 97.2539,71.0622 C98.7699,69.1102 95.7219,66.7842 94.2099,68.7342 C91.4939,72.2352 87.4789,74.5482 83.3409,76.0052 C80.2279,77.1012 73.4259,79.1422 71.2999,75.5722 C70.0389,73.4552 67.0269,75.8302 68.2749,77.9252"/>
          <path fill="#FFB31C" d="M51.9732,99.3832 C48.9292,103.4052 39.1872,101.1612 30.2122,94.3702 C21.2382,87.5802 16.4312,78.8152 19.4742,74.7922 C22.5172,70.7702 32.2602,73.0142 41.2342,79.8042 C50.2092,86.5952 55.0162,95.3612 51.9732,99.3832"/>
          <polygon fill="#FFB31C" points="19.474 74.792 23.628 69.717 56.126 94.308 51.973 99.383"/>
          <polygon fill="#FFB31C" points="19.474 74.792 23.628 69.717 56.126 94.308 51.973 99.383"/>
          <path fill="#FFC41C" d="M56.1265,94.308 C53.0835,98.33 43.3405,96.087 34.3665,89.296 C25.3925,82.506 20.5845,73.74 23.6275,69.717 C26.6715,65.695 36.4145,67.939 45.3885,74.73 C54.3625,81.52 59.1705,90.286 56.1265,94.308"/>
          <path fill="#F09A00" d="M51.4761,88.1361 C48.5651,91.0461 42.3501,87.3711 39.6981,85.5961 C36.0341,83.1441 32.7311,79.9601 30.9491,75.8761 C29.9631,73.6181 26.4361,75.1181 27.4261,77.3861 C29.9741,83.2241 35.1751,87.8071 40.7861,90.6591 C44.5121,92.5541 50.3721,94.6171 53.8291,91.1601 C55.5531,89.4381 53.2191,86.3941 51.4761,88.1361"/>
        </g>
        <g transform="translate(151 101.284)">
          <mask id="[kenapa-gabung]-4--cairin-penghasilan-f" fill="#fff">
            <use xlink:href="#[kenapa-gabung]-4--cairin-penghasilan-e"/>
          </mask>
          <polygon fill="#FFB31C" points="-17.621 53 76.668 53 76.668 -17.575 -17.621 -17.575" mask="url(#[kenapa-gabung]-4--cairin-penghasilan-f)"/>
        </g>
        <g transform="translate(154 94.284)">
          <mask id="[kenapa-gabung]-4--cairin-penghasilan-h" fill="#fff">
            <use xlink:href="#[kenapa-gabung]-4--cairin-penghasilan-g"/>
          </mask>
          <polygon fill="#FFC41C" points="-17.723 52.179 74.082 52.179 74.082 -18.037 -17.723 -18.037" mask="url(#[kenapa-gabung]-4--cairin-penghasilan-h)"/>
        </g>
        <g transform="translate(176 117.284)">
          <mask id="[kenapa-gabung]-4--cairin-penghasilan-j" fill="#fff">
            <use xlink:href="#[kenapa-gabung]-4--cairin-penghasilan-i"/>
          </mask>
          <polygon fill="#F09A00" points="-17.667 23.979 27.069 23.979 27.069 -17.755 -17.667 -17.755" mask="url(#[kenapa-gabung]-4--cairin-penghasilan-j)"/>
        </g>
        <g transform="translate(159 98.284)">
          <mask id="[kenapa-gabung]-4--cairin-penghasilan-l" fill="#fff">
            <use xlink:href="#[kenapa-gabung]-4--cairin-penghasilan-k"/>
          </mask>
          <polygon fill="#F09A00" points="-18.305 38.731 32.539 38.731 32.539 -17.608 -18.305 -17.608" mask="url(#[kenapa-gabung]-4--cairin-penghasilan-l)"/>
        </g>
        <g transform="translate(0 29.284)">
          <mask id="[kenapa-gabung]-4--cairin-penghasilan-n" fill="#fff">
            <use xlink:href="#[kenapa-gabung]-4--cairin-penghasilan-m"/>
          </mask>
          <polygon fill="#FFB31C" points="-17.569 53.012 76.24 53.012 76.24 -17.937 -17.569 -17.937" mask="url(#[kenapa-gabung]-4--cairin-penghasilan-n)"/>
        </g>
        <g transform="translate(0 22.284)">
          <mask id="[kenapa-gabung]-4--cairin-penghasilan-p" fill="#fff">
            <use xlink:href="#[kenapa-gabung]-4--cairin-penghasilan-o"/>
          </mask>
          <polygon fill="#FFC41C" points="-18 52.058 73.725 52.058 73.725 -18.298 -18 -18.298" mask="url(#[kenapa-gabung]-4--cairin-penghasilan-p)"/>
        </g>
        <path fill="#F09A00" d="M12.8916,50.2385 C17.6536,50.9185 22.4596,50.6445 27.0916,49.3005 C28.0486,49.0225 28.6466,48.0005 28.3776,47.0285 C28.1186,46.0755 27.0696,45.4585 26.1086,45.7395 C22.1566,46.8875 17.9556,47.2535 13.8736,46.6765 C12.8846,46.5375 11.8906,46.9215 11.5986,47.9695 C11.3626,48.8345 11.8936,50.0975 12.8916,50.2385"/>
        <g transform="translate(11 45.284)">
          <mask id="[kenapa-gabung]-4--cairin-penghasilan-r" fill="#fff">
            <use xlink:href="#[kenapa-gabung]-4--cairin-penghasilan-q"/>
          </mask>
          <polygon fill="#F09A00" points="-17.928 23.783 35.912 23.783 35.912 -18.084 -17.928 -18.084" mask="url(#[kenapa-gabung]-4--cairin-penghasilan-r)"/>
        </g>
        <g transform="translate(19 2.284)">
          <path fill="#F09A00" d="M16.3291,43.7084 C16.3291,44.8624 15.3941,45.7974 14.2411,45.7974 C13.0871,45.7974 12.1521,44.8624 12.1521,43.7084 C12.1521,42.5554 13.0871,41.6194 14.2411,41.6194 C15.3941,41.6194 16.3291,42.5554 16.3291,43.7084"/>
          <path fill="#FFF" d="M22.232 93.5873C16.046 94.9913 13.941 97.2803 12.65 104.0053 12.424 105.1813 10.885 105.1813 10.659 104.0053 9.368 97.2803 7.263 94.9913 1.077 93.5873-.005 93.3423-.005 91.6683 1.077 91.4233 7.263 90.0193 9.368 87.7313 10.659 81.0053 10.885 79.8293 12.424 79.8293 12.65 81.0053 13.941 87.7313 16.046 90.0193 22.232 91.4233 23.314 91.6683 23.314 93.3423 22.232 93.5873M170.2534 11.0355C165.2524 12.1705 163.5494 14.0205 162.5054 19.4595 162.3224 20.4095 161.0784 20.4095 160.8964 19.4595 159.8514 14.0205 158.1494 12.1705 153.1484 11.0355 152.2734 10.8375 152.2734 9.4835 153.1484 9.2855 158.1494 8.1495 159.8514 6.2995 160.8964.8615 161.0784-.0895 162.3224-.0895 162.5054.8615 163.5494 6.2995 165.2524 8.1495 170.2534 9.2855 171.1284 9.4835 171.1284 10.8375 170.2534 11.0355M193.19 80.1713C188.189 81.3063 186.486 83.1563 185.442 88.5943 185.259 89.5453 184.015 89.5453 183.832 88.5943 182.788 83.1563 181.086 81.3063 176.084 80.1713 175.21 79.9723 175.21 78.6193 176.084 78.4213 181.086 77.2853 182.788 75.4353 183.832 69.9973 184.015 69.0463 185.259 69.0463 185.442 69.9973 186.486 75.4353 188.189 77.2853 193.19 78.4213 194.065 78.6193 194.065 79.9723 193.19 80.1713"/>
        </g>
      </g>
    </g>
  </g>
</svg>
