<svg xmlns="http://www.w3.org/2000/svg" xmlns:xlink="http://www.w3.org/1999/xlink" width="314" height="152" viewBox="0 0 314 152">
  <defs>
    <rect id="[kenapa-gabung]-3--promo-spesial-a" width="314" height="152" x="0" y="0"/>
    <polygon id="[kenapa-gabung]-3--promo-spesial-c" points=".426 .716 158.377 .716 158.377 74 .426 74"/>
    <polygon id="[kenapa-gabung]-3--promo-spesial-e" points="0 .081 7.277 .081 7.277 3.138 0 3.138"/>
  </defs>
  <g fill="none" fill-rule="evenodd">
    <mask id="[kenapa-gabung]-3--promo-spesial-b" fill="#fff">
      <use xlink:href="#[kenapa-gabung]-3--promo-spesial-a"/>
    </mask>
    <g mask="url(#[kenapa-gabung]-3--promo-spesial-b)">
      <g transform="translate(52)">
        <g transform="translate(38 74.635)">
          <mask id="[kenapa-gabung]-3--promo-spesial-d" fill="#fff">
            <use xlink:href="#[kenapa-gabung]-3--promo-spesial-c"/>
          </mask>
          <path fill="#FFB31C" d="M158.377,37.3584 C158.377,57.5944 123.019,74.0004 79.402,74.0004 C35.785,74.0004 0.426,57.5944 0.426,37.3584 C0.426,17.1224 35.785,0.7164 79.402,0.7164 C123.019,0.7164 158.377,17.1224 158.377,37.3584" mask="url(#[kenapa-gabung]-3--promo-spesial-d)"/>
        </g>
        <path fill="#FFB31C" d="M44.2691 107.9339C46.6721 96.4679 49.0221 84.9919 51.3211 73.5039 51.8991 70.6169 47.4701 69.3799 46.8891 72.2829 44.5911 83.7699 42.2401 95.2459 39.8381 106.7119 39.2331 109.5979 43.6621 110.8309 44.2691 107.9339M55.6973 26.801C53.7353 37.269 51.7303 47.729 49.6823 58.179 49.1163 61.069 53.5443 62.305 54.1143 59.401 56.1623 48.95 58.1673 38.49 60.1293 28.024 60.6703 25.132 56.2423 23.894 55.6973 26.801M60.3189 1.6634C59.6569 5.3314 58.9899 8.9994 58.3179 12.6654 58.1019 13.8434 58.6399 15.1994 59.9229 15.4914 61.0479 15.7484 62.5169 15.1514 62.7489 13.8874 63.4219 10.2214 64.0889 6.5534 64.7499 2.8854 64.9629 1.7064 64.4299.3514 63.1459.0594 62.0219-.1966 60.5469.3984 60.3189 1.6634M182.083 47.6682C182.449 50.3112 182.812 52.9542 183.173 55.5982 183.245 56.1252 183.794 56.7172 184.229 56.9712 184.721 57.2592 185.447 57.3812 186 57.2022 186.555 57.0222 187.092 56.6782 187.373 56.1472 187.682 55.5612 187.693 55.0252 187.604 54.3762 187.244 51.7322 186.88 49.0892 186.515 46.4462 186.442 45.9182 185.895 45.3282 185.459 45.0732 184.966 44.7842 184.24 44.6622 183.688 44.8412 183.132 45.0222 182.596 45.3652 182.315 45.8972 182.005 46.4822 181.994 47.0192 182.083 47.6682M176.3565 9.0471C177.6385 17.6031 178.8805 26.1651 180.0915 34.7321 180.2655 35.9611 181.8325 36.6351 182.9185 36.3361 184.2415 35.9731 184.6975 34.7431 184.5235 33.5101 183.3125 24.9431 182.0705 16.3811 180.7885 7.8251 180.6045 6.5971 179.0555 5.9201 177.9615 6.2201 176.6465 6.5811 176.1715 7.8151 176.3565 9.0471"/>
        <path fill="#02790D" d="M161.022,113.8616 C164.614,111.4896 168.341,111.6506 171.177,112.4096 C173.575,113.0506 176.136,112.2066 177.789,110.3536 C182.222,105.3826 185.531,100.9966 187.645,98.0006 C188.942,96.1616 187.808,93.6226 185.577,93.3266 C141.332,87.4546 106.786,58.6456 96.308,49.0076 C94.592,47.4306 91.934,47.5106 90.334,49.2066 C88.337,51.3226 85.039,54.3196 79.833,57.8406 C78.754,58.5706 78.28,59.9286 78.704,61.1596 C79.744,64.1816 79.355,67.9236 74.389,70.8846 C69.922,73.5496 65.953,72.3766 63.392,70.9036 C62.376,70.3196 61.096,70.4526 60.171,71.1696 C56.258,74.2026 52.871,77.0486 50.558,79.0456 C48.741,80.6156 48.588,83.3716 50.203,85.1486 C79.484,117.3806 117.707,135.7286 129.904,141.0536 C132.385,142.1366 135.204,142.1436 137.681,141.0496 C142.402,138.9666 146.013,137.0556 149.855,134.5146 C151.951,133.1286 152.634,130.4836 151.783,128.1196 C149.992,123.1516 155.811,117.3036 161.022,113.8616"/>
        <path fill="#FFF" d="M117.6665,112.093 C116.9385,113.1 116.5915,113.986 116.6265,114.751 C116.6595,115.516 116.9615,116.106 117.5325,116.518 C118.1035,116.93 118.7575,117.032 119.4955,116.825 C120.2315,116.617 120.9655,116.011 121.6925,115.004 C122.3955,114.031 122.7245,113.17 122.6795,112.421 C122.6325,111.673 122.3245,111.091 121.7545,110.679 C121.1835,110.267 120.5355,110.156 119.8105,110.347 C119.0835,110.538 118.3695,111.12 117.6665,112.093 L117.6665,112.093 Z M127.7835,119.407 C125.9645,121.924 123.7905,123.341 121.2615,123.658 C118.7315,123.977 116.2755,123.274 113.8935,121.552 C111.4785,119.805 110.0325,117.687 109.5585,115.197 C109.0835,112.709 109.7565,110.206 111.5765,107.69 C113.3715,105.206 115.5255,103.8 118.0375,103.47 C120.5485,103.141 123.0145,103.849 125.4305,105.595 C127.8125,107.318 129.2485,109.431 129.7405,111.932 C130.2315,114.432 129.5795,116.924 127.7835,119.407 L127.7835,119.407 Z M130.6565,88.369 C132.2495,87.801 134.0515,88.381 134.9585,89.808 C135.1325,90.083 135.2915,90.361 135.4365,90.643 C135.9975,91.739 136.0325,92.697 135.5425,93.517 C135.1545,94.053 134.6195,94.51 133.9395,94.886 C133.2575,95.263 132.4805,95.595 131.6085,95.884 L98.5185,107.604 C96.7235,108.239 94.6755,107.423 93.9535,105.66 L93.9415,105.631 C93.5475,104.656 93.5955,103.76 94.0865,102.939 C94.4745,102.403 94.8985,101.905 95.3585,101.445 C95.8175,100.986 96.5095,100.578 97.4315,100.222 L130.6565,88.369 Z M107.7495,81.393 C107.0215,82.399 106.6735,83.285 106.7085,84.051 C106.7415,84.817 107.0445,85.405 107.6155,85.818 C108.1855,86.23 108.8385,86.333 109.5775,86.125 C110.3145,85.917 111.0485,85.311 111.7755,84.304 C112.4795,83.331 112.8075,82.47 112.7615,81.722 C112.7145,80.973 112.4075,80.391 111.8365,79.979 C111.2655,79.566 110.6175,79.455 109.8925,79.648 C109.1665,79.838 108.4525,80.42 107.7495,81.393 L107.7495,81.393 Z M117.8655,88.707 C116.0465,91.224 113.8725,92.641 111.3425,92.959 C108.8145,93.277 106.3585,92.573 103.9765,90.851 C101.5605,89.105 100.1145,86.987 99.6405,84.498 C99.1665,82.008 99.8395,79.506 101.6585,76.989 C103.4535,74.507 105.6075,73.099 108.1205,72.77 C110.6315,72.44 113.0955,73.15 115.5115,74.896 C117.8945,76.618 119.3315,78.73 119.8225,81.231 C120.3135,83.732 119.6605,86.225 117.8655,88.707 L117.8655,88.707 Z"/>
        <path fill="#FFB31C" d="M185.1372,68.6194 C186.1292,76.0244 187.1062,83.4314 188.0732,90.8384 C188.2332,92.0684 189.0142,93.1364 190.3702,93.1364 C191.4872,93.1364 192.8302,92.0774 192.6682,90.8384 C191.7012,83.4314 190.7252,76.0244 189.7332,68.6194 C189.5682,67.3904 188.7942,66.3214 187.4352,66.3214 C186.3212,66.3214 184.9712,67.3814 185.1372,68.6194"/>
        <path fill="#FFF" d="M156.625 53.7464C155.885 53.7464 155.137 54.2434 155.137 55.1924L155.137 60.1894C155.137 61.1404 155.886 61.6374 156.626 61.6374 157.011 61.6374 157.371 61.5094 157.64 61.2774 157.951 61.0114 158.115 60.6354 158.115 60.1894L158.115 55.1924C158.115 54.7484 157.951 54.3724 157.64 54.1054 157.37 53.8734 157.009 53.7464 156.625 53.7464M161.2368 51.5911L166.2318 51.9161C166.7478 51.9491 167.1818 51.7501 167.4448 51.3551 167.7408 50.9111 167.7708 50.2721 167.5188 49.7631 167.2788 49.2761 166.8208 48.9751 166.2648 48.9401L161.2698 48.6151C161.2328 48.6121 161.1948 48.6121 161.1578 48.6121 160.6898 48.6121 160.3008 48.8101 160.0568 49.1761 159.7608 49.6191 159.7318 50.2591 159.9828 50.7681 160.2228 51.2551 160.6808 51.5561 161.2368 51.5911M146.1001 51.7698L151.2451 51.7698C152.1941 51.7698 152.6911 51.0198 152.6911 50.2798 152.6911 49.5408 152.1941 48.7918 151.2451 48.7918L146.1001 48.7918C145.1501 48.7918 144.6531 49.5408 144.6531 50.2818 144.6531 51.0208 145.1501 51.7698 146.1001 51.7698M155.5967 46.7971C156.0957 47.0571 156.7377 47.0381 157.1937 46.7491 157.6057 46.4871 157.8207 46.0531 157.7977 45.5261L157.5547 39.8581 157.5647 39.7921C157.5787 39.7111 157.5967 39.6091 157.5817 39.4831L157.5187 38.9431C157.4087 38.0071 156.6347 37.5331 155.9137 37.5331 155.8707 37.5331 155.8277 37.5351 155.7857 37.5381 155.1387 37.5901 154.5037 38.0571 154.5427 38.9841L154.8207 45.5481C154.8437 46.0961 155.1267 46.5511 155.5967 46.7971M10.2222 91.0286C10.9062 91.0286 11.5972 90.5696 11.5972 89.6916L11.5972 85.0746C11.5972 84.1976 10.9052 83.7376 10.2212 83.7376 9.8662 83.7376 9.5332 83.8556 9.2842 84.0706 8.9972 84.3156 8.8462 84.6646 8.8462 85.0746L8.8462 89.6916C8.8462 90.1026 8.9972 90.4506 9.2852 90.6966 9.5342 90.9116 9.8682 91.0286 10.2222 91.0286"/>
        <g transform="translate(0 92.635)">
          <mask id="[kenapa-gabung]-3--promo-spesial-f" fill="#fff">
            <use xlink:href="#[kenapa-gabung]-3--promo-spesial-e"/>
          </mask>
          <path fill="#FFF" d="M5.9614,0.3848 L1.3464,0.0848 C0.8704,0.0538 0.4694,0.2378 0.2254,0.6038 C-0.0476,1.0128 -0.0756,1.6038 0.1574,2.0738 C0.3794,2.5248 0.8014,2.8018 1.3154,2.8348 L5.9304,3.1348 C5.9654,3.1368 6.0004,3.1378 6.0334,3.1378 C6.4664,3.1378 6.8254,2.9548 7.0514,2.6158 C7.3254,2.2068 7.3524,1.6148 7.1194,1.1448 C6.8974,0.6958 6.4754,0.4168 5.9614,0.3848" mask="url(#[kenapa-gabung]-3--promo-spesial-f)"/>
        </g>
        <path fill="#FFF" d="M19.9463 92.8548L15.1933 92.8548C14.3163 92.8548 13.8563 93.5468 13.8563 94.2318 13.8563 94.9148 14.3163 95.6058 15.1933 95.6058L19.9463 95.6058C20.8243 95.6058 21.2833 94.9138 21.2833 94.2298 21.2833 93.5468 20.8243 92.8548 19.9463 92.8548M11.1724 97.4495C10.7124 97.2095 10.1184 97.2255 9.6964 97.4935 9.3164 97.7345 9.1184 98.1365 9.1384 98.6245L9.3634 103.8605 9.3544 103.9205C9.3414 103.9965 9.3244 104.0905 9.3384 104.2075L9.3964 104.7055C9.4984 105.5705 10.2144 106.0085 10.8794 106.0085 10.9194 106.0085 10.9584 106.0065 10.9974 106.0035 11.5954 105.9555 12.1824 105.5245 12.1464 104.6675L11.8894 98.6035C11.8684 98.0965 11.6074 97.6765 11.1724 97.4495M77.4063 22.3645C77.4063 22.0405 77.1893 21.7135 76.7743 21.7135L74.5883 21.7135C74.1733 21.7135 73.9553 22.0415 73.9553 22.3645 73.9553 22.5325 74.0113 22.6905 74.1133 22.8075 74.2293 22.9435 74.3943 23.0155 74.5883 23.0155L76.7743 23.0155C76.9683 23.0155 77.1333 22.9435 77.2493 22.8075 77.3503 22.6895 77.4063 22.5325 77.4063 22.3645M78.3486 24.3811L78.2066 26.5661C78.1926 26.7911 78.2796 26.9811 78.4526 27.0961 78.6456 27.2261 78.9256 27.2381 79.1486 27.1281 79.3616 27.0231 79.4926 26.8231 79.5086 26.5801L79.6506 24.3961C79.6516 24.3791 79.6516 24.3621 79.6516 24.3471 79.6516 24.1421 79.5656 23.9721 79.4046 23.8651 79.2116 23.7351 78.9316 23.7231 78.7086 23.8321 78.4956 23.9381 78.3646 24.1381 78.3486 24.3811M78.271 17.762L78.271 20.011C78.271 20.427 78.599 20.644 78.922 20.644 79.246 20.644 79.573 20.427 79.573 20.011L79.573 17.762C79.573 17.346 79.245 17.129 78.922 17.129 78.598 17.129 78.271 17.346 78.271 17.762M80.4453 21.9143C80.3313 22.1333 80.3403 22.4133 80.4663 22.6133 80.5803 22.7933 80.7703 22.8873 81.0013 22.8773L83.4803 22.7703 83.5083 22.7753C83.5443 22.7813 83.5893 22.7893 83.6443 22.7823L83.8803 22.7553C84.2893 22.7073 84.4963 22.3683 84.4963 22.0533 84.4963 22.0343 84.4953 22.0163 84.4943 21.9973 84.4713 21.7143 84.2673 21.4363 83.8623 21.4533L80.9913 21.5753C80.7523 21.5853 80.5523 21.7093 80.4453 21.9143M194.0611 126.137C194.9241 126.137 195.7981 125.557 195.7981 124.45L195.7981 118.618C195.7981 117.509 194.9231 116.929 194.0601 116.929 193.6111 116.929 193.1911 117.078 192.8761 117.349 192.5141 117.659 192.3231 118.099 192.3231 118.618L192.3231 124.45C192.3231 124.968 192.5141 125.407 192.8771 125.718 193.1921 125.989 193.6131 126.137 194.0611 126.137M188.6802 128.6516L182.8512 128.2726C182.2492 128.2336 181.7432 128.4656 181.4352 128.9276 181.0902 129.4446 181.0552 130.1916 181.3492 130.7856 181.6302 131.3536 182.1632 131.7046 182.8122 131.7466L188.6412 132.1246C188.6842 132.1276 188.7282 132.1286 188.7712 132.1286 189.3182 132.1286 189.7712 131.8976 190.0562 131.4696 190.4022 130.9526 190.4362 130.2066 190.1422 129.6116 189.8622 129.0446 189.3282 128.6936 188.6802 128.6516M206.3423 128.4436L200.3393 128.4436C199.2313 128.4436 198.6513 129.3186 198.6513 130.1816 198.6513 131.0456 199.2313 131.9186 200.3393 131.9186L206.3423 131.9186C207.4503 131.9186 208.0303 131.0436 208.0303 130.1796 208.0303 129.3176 207.4503 128.4436 206.3423 128.4436M195.2608 134.2464C194.6788 133.9424 193.9288 133.9644 193.3978 134.3024 192.9168 134.6064 192.6668 135.1134 192.6928 135.7294L192.9768 142.3434 192.9648 142.4194C192.9478 142.5144 192.9278 142.6334 192.9448 142.7804L193.0178 143.4104C193.1458 144.5034 194.0508 145.0554 194.8908 145.0554 194.9408 145.0554 194.9908 145.0534 195.0398 145.0494 195.7948 144.9894 196.5358 144.4444 196.4908 143.3624L196.1668 135.7034C196.1398 135.0634 195.8098 134.5324 195.2608 134.2464"/>
        <path fill="#000" d="M48.0503,84.2376 C56.9013,95.4956 68.1713,104.7516 79.8193,112.9736 C91.4643,121.1946 103.8093,128.4376 116.5123,134.8946 C122.1443,137.7576 127.8583,140.4666 133.6723,142.9366 C134.4233,143.2566 135.2713,143.1556 135.7243,142.3986 C136.1003,141.7726 135.9313,140.6636 135.1863,140.3466 C123.9963,135.5906 113.1323,130.0226 102.6093,123.9386 C89.9373,116.6126 77.6333,108.4576 66.5273,98.8956 C60.6033,93.7956 55.0083,88.2696 50.1713,82.1166 C48.9793,80.5996 46.8693,82.7356 48.0503,84.2376"/>
      </g>
    </g>
  </g>
</svg>
