<svg xmlns="http://www.w3.org/2000/svg" xmlns:xlink="http://www.w3.org/1999/xlink" width="314" height="152" viewBox="0 0 314 152">
  <defs>
    <rect id="[kenapa-gabung]-2--asuransi-a" width="314" height="152" x="0" y="0"/>
    <polygon id="[kenapa-gabung]-2--asuransi-c" points=".832 .118 98.159 .118 98.159 97.445 .832 97.445"/>
    <polygon id="[kenapa-gabung]-2--asuransi-e" points=".581 .027 37.514 .027 37.514 16 .581 16"/>
    <polygon id="[kenapa-gabung]-2--asuransi-g" points=".473 .027 37.406 .027 37.406 16 .473 16"/>
    <polygon id="[kenapa-gabung]-2--asuransi-i" points=".186 .323 26.085 .323 26.085 10.797 .186 10.797"/>
    <polygon id="[kenapa-gabung]-2--asuransi-k" points="0 .801 22.008 .801 22.008 11.002 0 11.002"/>
  </defs>
  <g fill="none" fill-rule="evenodd">
    <mask id="[kenapa-gabung]-2--asuransi-b" fill="#fff">
      <use xlink:href="#[kenapa-gabung]-2--asuransi-a"/>
    </mask>
    <g mask="url(#[kenapa-gabung]-2--asuransi-b)">
      <g transform="translate(55)">
        <g transform="translate(53 .882)">
          <mask id="[kenapa-gabung]-2--asuransi-d" fill="#fff">
            <use xlink:href="#[kenapa-gabung]-2--asuransi-c"/>
          </mask>
          <path fill="#00A713" d="M98.1586,48.7816 C98.1586,75.6576 76.3716,97.4446 49.4956,97.4446 C22.6186,97.4446 0.8316,75.6576 0.8316,48.7816 C0.8316,21.9056 22.6186,0.1176 49.4956,0.1176 C76.3716,0.1176 98.1586,21.9056 98.1586,48.7816" mask="url(#[kenapa-gabung]-2--asuransi-d)"/>
        </g>
        <path fill="#000" d="M39.5531,78.3101 C39.5531,78.3101 39.3371,67.9361 44.8821,69.1301 C50.4231,70.3201 50.5381,75.6041 50.5381,75.6041 C50.5381,75.6041 56.7381,75.0601 58.3251,82.9011 L59.9081,90.7421 L60.1431,111.3091 L42.7461,91.1301 C42.7461,91.1301 39.8321,88.7911 39.5531,78.3101"/>
        <path fill="#DD7B6B" d="M85.1503,136.9088 C85.1503,136.9088 84.1203,115.9828 70.7603,109.7488 C70.7603,109.7488 70.2123,98.2948 67.3593,90.1978 C64.5073,82.1048 49.7513,77.9528 52.9483,100.1078 C52.9483,100.1078 46.0983,92.4978 42.0833,86.3948 C42.0833,86.3948 42.0693,64.0628 34.7113,62.9308 C25.6983,61.5428 24.6373,67.0608 26.6853,85.2758 C28.7283,103.4958 42.0563,122.6358 56.5483,134.0218 L56.6943,137.3148 L85.1503,136.9088 Z"/>
        <g transform="translate(51 136.882)">
          <mask id="[kenapa-gabung]-2--asuransi-f" fill="#fff">
            <use xlink:href="#[kenapa-gabung]-2--asuransi-e"/>
          </mask>
          <path fill="#00A613" d="M1.2421,0.4936 L0.5811,16.0006 L29.2801,16.0006 C32.4551,16.0006 37.5141,15.8306 37.5141,15.8306 L35.5111,0.0266 L1.2421,0.4936 Z" mask="url(#[kenapa-gabung]-2--asuransi-f)"/>
        </g>
        <path fill="#000" d="M49.7279,104.982 C48.8339,101.285 47.9329,97.517 47.9059,93.692 C47.8839,90.848 52.3059,90.844 52.3279,93.692 C52.3499,97.128 53.1899,100.48 53.9909,103.8 C54.6589,106.569 50.3949,107.75 49.7279,104.982"/>
        <polygon fill="#000" points="52.242 137.376 51.87 146.092 87.748 146.669 86.511 136.909"/>
        <path fill="#000" d="M165.434,78.3101 C165.434,78.3101 165.65,67.9361 160.105,69.1301 C154.564,70.3201 154.449,75.6041 154.449,75.6041 C154.449,75.6041 148.249,75.0601 146.662,82.9011 L145.079,90.7421 L144.844,111.3091 L162.241,91.1301 C162.241,91.1301 165.155,88.7911 165.434,78.3101"/>
        <path fill="#DD7B6B" d="M119.8368,136.9088 C119.8368,136.9088 120.8668,115.9828 134.2268,109.7488 C134.2268,109.7488 134.7748,98.2948 137.6278,90.1978 C140.4798,82.1048 155.2358,77.9528 152.0388,100.1078 C152.0388,100.1078 158.8888,92.4978 162.9038,86.3948 C162.9038,86.3948 162.9178,64.0628 170.2758,62.9308 C179.2888,61.5428 180.3498,67.0608 178.3018,85.2758 C176.2588,103.4958 162.9308,122.6358 148.4388,134.0218 L148.2928,137.3148 L119.8368,136.9088 Z"/>
        <g transform="translate(116 136.882)">
          <mask id="[kenapa-gabung]-2--asuransi-h" fill="#fff">
            <use xlink:href="#[kenapa-gabung]-2--asuransi-g"/>
          </mask>
          <path fill="#00A613" d="M36.745,0.4936 L37.406,16.0006 L8.707,16.0006 C5.532,16.0006 0.473,15.8306 0.473,15.8306 L2.476,0.0266 L36.745,0.4936 Z" mask="url(#[kenapa-gabung]-2--asuransi-h)"/>
        </g>
        <path fill="#000" d="M155.2592,104.982 C156.1532,101.285 157.0542,97.517 157.0812,93.692 C157.1032,90.848 152.6812,90.844 152.6592,93.692 C152.6372,97.128 151.7972,100.48 150.9962,103.8 C150.3282,106.569 154.5922,107.75 155.2592,104.982"/>
        <polygon fill="#000" points="152.745 137.376 153.117 146.092 117.239 146.669 118.476 136.909"/>
        <polygon fill="#000" points="111.674 69.035 129.478 61.076 110.743 58.89"/>
        <path fill="#FFF" d="M127.2948,37.7945 L114.3638,37.7945 L114.3638,24.8635 C114.3638,21.8695 111.9368,19.4415 108.9428,19.4415 L96.0478,19.4415 C93.0508,19.4415 90.6218,21.8715 90.6218,24.8685 L90.6218,37.7945 L77.6908,37.7945 C74.6968,37.7945 72.2698,40.2215 72.2698,43.2155 L72.2698,56.1155 C72.2698,59.1095 74.6968,61.5365 77.6908,61.5365 L90.6218,61.5365 L90.6218,74.4675 C90.6218,77.4645 93.0508,79.8935 96.0478,79.8935 L108.9388,79.8935 C111.9348,79.8935 114.3638,77.4645 114.3638,74.4675 L114.3638,61.5365 L127.2948,61.5365 C130.2918,61.5365 132.7208,59.1075 132.7208,56.1105 L132.7208,43.2205 C132.7208,40.2225 130.2888,37.7945 127.2948,37.7945"/>
        <g transform="translate(177 13.882)">
          <mask id="[kenapa-gabung]-2--asuransi-j" fill="#fff">
            <use xlink:href="#[kenapa-gabung]-2--asuransi-i"/>
          </mask>
          <path fill="#FFF" d="M23.7723,0.4115 C16.3483,2.6385 8.9243,4.8635 1.5013,7.0895 C-0.8067,7.7815 0.1763,11.4045 2.4993,10.7085 L24.7703,4.0315 C27.0783,3.3395 26.0953,-0.2845 23.7723,0.4115" mask="url(#[kenapa-gabung]-2--asuransi-j)"/>
        </g>
        <path fill="#FFF" d="M196.4613,50.9859 C191.5653,49.8379 186.6243,48.9009 181.6473,48.1789 C180.6463,48.0349 179.6303,48.4269 179.3383,49.4909 C179.0963,50.3729 179.6403,51.6529 180.6493,51.7989 C185.6263,52.5209 190.5673,53.4569 195.4633,54.6049 C196.4493,54.8369 197.4963,54.2979 197.7723,53.2949 C198.0333,52.3429 197.4523,51.2179 196.4613,50.9859"/>
        <g transform="translate(0 12.882)">
          <mask id="[kenapa-gabung]-2--asuransi-l" fill="#fff">
            <use xlink:href="#[kenapa-gabung]-2--asuransi-k"/>
          </mask>
          <path fill="#FFF" d="M1.3793,4.5043 C7.4633,6.6423 13.5463,8.7793 19.6303,10.9173 C20.5873,11.2543 21.6843,10.5363 21.9393,9.6073 C22.2243,8.5703 21.5883,7.6353 20.6283,7.2983 C14.5453,5.1603 8.4613,3.0233 2.3773,0.8853 C1.4213,0.5493 0.3233,1.2673 0.0683,2.1953 C-0.2167,3.2323 0.4193,4.1673 1.3793,4.5043" mask="url(#[kenapa-gabung]-2--asuransi-l)"/>
        </g>
        <path fill="#FFF" d="M5.0892,51.8658 C9.0322,51.6488 12.9752,51.4308 16.9192,51.2148 C17.8972,51.1598 18.8422,50.3888 18.7952,49.3378 C18.7522,48.3668 17.9682,47.4028 16.9192,47.4608 C12.9752,47.6788 9.0322,47.8948 5.0892,48.1128 C4.1102,48.1668 3.1652,48.9368 3.2122,49.9898 C3.2562,50.9598 4.0392,51.9248 5.0892,51.8658"/>
      </g>
    </g>
  </g>
</svg>
