<svg xmlns="http://www.w3.org/2000/svg" xmlns:xlink="http://www.w3.org/1999/xlink" width="313" height="176" viewBox="0 0 313 176">
  <defs>
    <polygon id="akses-ke-pengguna-e-wallet-a" points=".763 .217 34.684 .217 34.684 103 .763 103"/>
    <polygon id="akses-ke-pengguna-e-wallet-c" points=".59 .939 170.175 .939 170.175 134 .59 134"/>
    <polygon id="akses-ke-pengguna-e-wallet-e" points=".224 .63 142.164 .63 142.164 112 .224 112"/>
    <polygon id="akses-ke-pengguna-e-wallet-g" points=".944 .151 72.697 .151 72.697 59 .944 59"/>
    <polygon id="akses-ke-pengguna-e-wallet-i" points=".767 .466 102.894 .466 102.894 102.593 .767 102.593"/>
    <polygon id="akses-ke-pengguna-e-wallet-k" points="0 .434 107.983 .434 107.983 44 0 44"/>
    <polygon id="akses-ke-pengguna-e-wallet-m" points=".4 .047 21.01 .047 21.01 7 .4 7"/>
  </defs>
  <g fill="none" fill-rule="evenodd" transform="translate(36 26)">
    <g transform="translate(7 47.534)">
      <mask id="akses-ke-pengguna-e-wallet-b" fill="#fff">
        <use xlink:href="#akses-ke-pengguna-e-wallet-a"/>
      </mask>
      <path fill="#004758" d="M3.6243,0.2172 L1.0743,16.6972 C0.4353,20.8252 0.7843,25.0462 2.0913,29.0132 L26.4773,102.9982 L34.6843,103.0002 L3.6243,0.2172 Z" mask="url(#akses-ke-pengguna-e-wallet-b)"/>
    </g>
    <g transform="translate(10 16.534)">
      <mask id="akses-ke-pengguna-e-wallet-d" fill="#fff">
        <use xlink:href="#akses-ke-pengguna-e-wallet-c"/>
      </mask>
      <path fill="#006980" d="M170.1746,134.0004 L140.1666,14.2814 C137.9916,5.6044 129.6636,-0.0666 120.7936,1.0884 L15.9496,14.7364 C5.0816,16.1504 -1.8734,27.0344 1.4066,37.4914 L31.6836,134.0004 L170.1746,134.0004 Z" mask="url(#akses-ke-pengguna-e-wallet-d)"/>
    </g>
    <g transform="translate(27 38.534)">
      <mask id="akses-ke-pengguna-e-wallet-f" fill="#fff">
        <use xlink:href="#akses-ke-pengguna-e-wallet-e"/>
      </mask>
      <path fill="#94D8E4" d="M142.1638,112.0004 L117.0478,11.7974 C115.2268,4.5354 108.2568,-0.2116 100.8318,0.7544 L13.0798,12.1784 C3.9838,13.3624 -1.8382,22.4724 0.9078,31.2244 L26.2488,112.0004 L142.1638,112.0004 Z" mask="url(#akses-ke-pengguna-e-wallet-f)"/>
    </g>
    <g transform="translate(142 91.534)">
      <mask id="akses-ke-pengguna-e-wallet-h" fill="#fff">
        <use xlink:href="#akses-ke-pengguna-e-wallet-g"/>
      </mask>
      <path fill="#F4939D" d="M72.697,58.9985 C72.697,58.9985 72.012,44.0725 64.48,19.6505 C56.948,-4.7715 23.169,-5.2295 9.246,12.5745 C-4.677,30.3785 -3.785,50.8255 33.003,38.2055 L38.175,59.0005 L72.697,58.9985 Z" mask="url(#akses-ke-pengguna-e-wallet-h)"/>
    </g>
    <path fill="#004758" d="M65.6086 35.8733L65.6496 36.0033C66.1916 37.7553 65.0196 39.5713 63.1996 39.7983L49.7326 41.4743C48.2626 41.6573 46.8846 40.7193 46.5166 39.2843 46.0776 37.5753 47.2286 35.8673 48.9766 35.6323L62.4026 33.8263C63.8276 33.6343 65.1826 34.4993 65.6086 35.8733M114.3137 33.4211L79.6177 37.7421C78.2887 37.9081 77.0147 37.1551 76.5187 35.9111L76.4107 35.6411C75.6997 33.8591 76.8527 31.8861 78.7527 31.6301L113.3087 26.9771C114.6357 26.7981 115.9167 27.5371 116.4257 28.7751L116.6737 29.3771C117.4127 31.1731 116.2417 33.1811 114.3137 33.4211"/>
    <path fill="#00AED6" d="M90.5432,62.4133 C111.4582,58.4183 132.9052,71.9353 138.4492,92.6063 C143.9922,113.2763 131.5322,133.2713 110.6182,137.2673 C89.7032,141.2633 68.2552,127.7453 62.7122,107.0743 C57.1682,86.4043 69.6292,66.4093 90.5432,62.4133"/>
    <path fill="#FFF" d="M115.8723,101.2024 L116.2443,102.5904 C116.4743,103.4474 115.9533,104.2854 115.0843,104.4504 C114.2173,104.6164 113.3193,104.0514 113.0893,103.1924 L112.7163,101.8054 C112.1143,101.4774 111.6473,100.9104 111.4633,100.2244 C111.1163,98.9304 111.8933,97.6834 113.2033,97.4334 C114.5133,97.1824 115.8503,98.0254 116.1973,99.3204 C116.3813,100.0064 116.2483,100.6874 115.8723,101.2024 M122.3253,94.4614 C120.7133,89.7524 115.8113,86.9344 110.9463,88.0284 L87.0263,92.5984 C86.1583,92.7644 85.2603,92.1974 85.0303,91.3404 C84.8003,90.4824 85.3213,89.6444 86.1893,89.4784 L110.4253,84.8484 C109.4433,81.8064 106.1823,78.9224 103.0583,79.0264 C95.6123,79.1544 88.4963,80.5144 81.7103,83.1054 C77.9333,84.4824 75.9673,88.9074 76.3703,92.8804 C77.2313,100.4854 79.2143,107.8774 82.3123,115.0394 C84.0183,118.9274 88.9533,122.0504 93.1763,121.7184 C102.3163,121.1024 111.1683,119.4124 119.5743,116.6754 C123.3973,115.4694 125.0323,111.4194 124.7883,107.4174 C124.4223,102.9624 123.5953,98.5794 122.3253,94.4614"/>
    <g transform="translate(139 .534)">
      <mask id="akses-ke-pengguna-e-wallet-j" fill="#fff">
        <use xlink:href="#akses-ke-pengguna-e-wallet-i"/>
      </mask>
      <path fill="#FFF" d="M102.8938,51.5287 C102.8938,79.7307 80.0318,102.5927 51.8298,102.5927 C23.6278,102.5927 0.7668,79.7307 0.7668,51.5287 C0.7668,23.3277 23.6278,0.4657 51.8298,0.4657 C80.0318,0.4657 102.8938,23.3277 102.8938,51.5287" mask="url(#akses-ke-pengguna-e-wallet-j)"/>
    </g>
    <path fill="#FFF" d="M158.1892,88.9729 C156.6972,91.6069 154.5242,95.0899 151.9872,98.0799 C149.9572,100.4739 151.0952,104.1649 154.1372,104.9369 C160.3962,106.5239 169.6452,107.6279 176.7232,103.2049 C179.2802,101.6079 179.2872,97.8689 176.7982,96.1659 L164.2502,87.5819 C162.2102,86.1869 159.4072,86.8229 158.1892,88.9729"/>
    <path fill="#000" d="M152.4534,107.4436 C157.0394,109.2116 162.3624,109.0956 167.1784,108.5176 C171.6014,107.9876 175.9094,106.6956 179.2274,103.5926 C180.6404,102.2716 178.5154,100.1536 177.1064,101.4716 C174.2104,104.1786 170.2554,105.2216 166.3994,105.6026 C162.0464,106.0336 157.3894,106.1456 153.2504,104.5496 C151.4484,103.8556 150.6674,106.7556 152.4534,107.4436"/>
    <path fill="#000" d="M177.9846 103.9016C185.2306 106.1876 192.8616 106.7316 200.3696 105.6256 201.1766 105.5056 201.6056 104.4946 201.4166 103.7806 201.1896 102.9186 200.3696 102.6156 199.5716 102.7326 192.6086 103.7586 185.4846 103.1246 178.7826 101.0076 176.9366 100.4256 176.1476 103.3216 177.9846 103.9016M185.3333 121.6301C177.9003 127.2421 168.9253 130.5171 159.6093 130.8841 157.6863 130.9601 157.6763 133.9611 159.6093 133.8841 169.4253 133.4971 179.0013 130.1451 186.8473 124.2201 188.3693 123.0711 186.8753 120.4651 185.3333 121.6301"/>
    <path fill="#FBB11E" d="M216.4797,62.6252 C216.4797,62.6252 218.5627,60.9742 217.9407,58.3442 C216.8197,55.4222 214.5597,55.7282 214.5597,55.7282 C214.5597,55.7282 217.0927,54.1172 215.9517,51.1472 C214.5947,47.6182 211.6467,48.0842 211.6467,48.0842 C211.6467,48.0842 214.0877,46.2542 212.0227,42.3242 C211.1877,40.7552 208.7437,39.8752 206.5347,40.4102 C205.1697,40.7032 203.9427,41.0742 201.9587,41.4672 C198.0867,42.2322 194.7317,42.5042 194.7317,42.5042 C194.7317,42.5042 194.9487,34.7812 192.4577,30.3092 C190.4667,26.7342 188.5107,25.9112 186.9037,26.1742 C183.9457,26.6582 183.0667,28.8052 184.2057,34.0632 C185.2907,37.9542 183.9137,44.5402 182.9267,46.1532 C180.6767,49.5982 179.3117,53.8092 179.6377,58.3722 C178.2717,61.5992 176.2597,66.1252 173.9967,70.4402 C172.2407,73.7882 170.2697,76.6442 168.8017,78.5912 C167.9367,79.7382 168.7447,81.3732 170.1807,81.3952 L192.8977,81.7395101 C194.1067,81.7582 195.1527,80.9022 195.3757,79.7142 C195.3757,79.7142 196.5087,77.2922 197.8277,76.0282 C199.2867,74.6312 201.2197,73.9172 202.6597,73.5492 C203.3087,73.4372 203.9557,73.3122 204.5997,73.1792 C204.6047,73.1792 204.6337,73.1752 204.6337,73.1752 L204.6237,73.1742 C206.8737,72.7092 209.0677,72.1302 210.9837,71.5022 C214.2377,70.4372 216.3427,70.0712 217.6577,68.3242 C220.0797,64.8442 216.4797,62.6252 216.4797,62.6252"/>
    <path fill="#000" d="M200.3723 52.1204C204.4493 51.2354 208.5273 50.3494 212.6043 49.4644 215.1393 48.9144 214.0663 45.0234 211.5323 45.5734 207.4553 46.4594 203.3773 47.3444 199.3003 48.2294 196.7653 48.7804 197.8383 52.6714 200.3723 52.1204M202.0344 60.1399C204.5044 59.6799 206.9454 59.1059 209.3974 58.5619 211.5054 58.0939 213.7784 57.9019 215.7764 57.0819 218.1454 56.1109 217.1084 52.2049 214.7044 53.1919 212.7164 54.0059 210.4214 54.2049 208.3254 54.6709 205.8744 55.2159 203.4314 55.7889 200.9624 56.2489 198.4144 56.7229 199.4934 60.6129 202.0344 60.1399M215.4182 60.6418C211.3482 61.4338 207.4252 62.8118 203.3552 63.6038 200.8112 64.0988 201.8882 67.9888 204.4282 67.4948 208.4982 66.7028 212.4202 65.3248 216.4902 64.5328 219.0352 64.0378 217.9582 60.1478 215.4182 60.6418"/>
    <path fill="#FBB11E" d="M169.5012 44.3049C166.6372 43.8609 164.3692 40.0699 163.0732 37.8629 162.9362 37.6279 162.7172 37.5589 162.5102 37.5889 162.2862 37.5949 162.0742 37.7159 161.9942 37.9889 161.9932 37.9909 161.9912 37.9929 161.9902 37.9949 161.9902 37.9979 161.9882 37.9989 161.9872 38.0019 161.1782 41.0329 159.4532 43.4259 156.6912 45.0089 156.2722 45.2489 156.3192 45.9819 156.8332 46.0829 160.2682 46.7599 162.0112 50.2829 163.2582 53.1699 163.4612 53.6419 164.2372 53.4919 164.3452 53.0309 165.0932 49.8149 166.8732 47.2179 169.6432 45.3789 170.0212 45.1289 170.0482 44.3899 169.5012 44.3049M220.9333 29.0569C218.7893 28.7239 217.0903 25.8679 216.1213 24.2159 215.9893 23.9929 215.7803 23.9259 215.5813 23.9539 215.3673 23.9609 215.1643 24.0769 215.0883 24.3369 215.0873 24.3389 215.0863 24.3409 215.0853 24.3429 215.0843 24.3459 215.0823 24.3479 215.0813 24.3509 214.4753 26.6229 213.1843 28.4159 211.1133 29.6029 210.7123 29.8319 210.7573 30.5349 211.2483 30.6309 213.8253 31.1379 215.1243 33.7969 216.0593 35.9609 216.2543 36.4109 216.9953 36.2679 217.0983 35.8269 217.6603 33.4139 218.9903 31.4639 221.0693 30.0839 221.4303 29.8449 221.4563 29.1379 220.9333 29.0569M178.8352 18.8508C176.5782 18.5108 175.6382 16.5848 174.8272 14.7078 174.5912 14.1618 173.6922 14.3358 173.5672 14.8708 173.0972 16.8898 171.9932 18.5248 170.2522 19.6798 169.6462 20.0818 169.9342 20.8648 170.6002 20.9508 172.6472 21.2158 173.6302 23.4548 174.4262 24.9898 174.5862 25.2978 174.8692 25.3718 175.1272 25.3058 175.3752 25.2838 175.6062 25.1378 175.6872 24.8268 176.1902 22.8858 177.2222 21.1308 179.0002 20.0968 179.4662 19.8258 179.4472 18.9428 178.8352 18.8508"/>
    <g transform="translate(0 106.534)">
      <mask id="akses-ke-pengguna-e-wallet-l" fill="#fff">
        <use xlink:href="#akses-ke-pengguna-e-wallet-k"/>
      </mask>
      <path fill="#F4939D" d="M107.9534,13.1967 C108.9114,21.4987 86.7604,29.1307 73.9504,44.0007 L-0.0006,44.0007 C-0.0006,44.0007 0.7984,36.3287 5.1084,32.5587 C15.7684,21.1387 25.9994,25.8497 25.9994,25.8497 C25.9994,25.8497 42.5904,16.8497 53.9794,24.9207 C53.9794,24.9207 66.7444,9.6627 82.9104,3.8097 C96.3764,-1.0653 106.1204,-2.6853 107.9534,13.1967" mask="url(#akses-ke-pengguna-e-wallet-l)"/>
    </g>
    <path fill="#000" d="M40.3049 145.1897C44.3369 140.2857 49.0039 135.4137 55.1329 133.2517 55.8959 132.9827 56.4059 132.2267 56.1799 131.4067 55.9769 130.6667 55.1029 130.0877 54.3349 130.3587 47.6799 132.7067 42.5789 137.7217 38.1839 143.0687 37.6699 143.6937 37.5719 144.5787 38.1839 145.1897 38.7139 145.7197 39.7879 145.8187 40.3049 145.1897M16.6667 142.0901C19.8017 138.4961 23.6397 135.6501 27.9807 133.6771 28.7187 133.3421 28.8977 132.2731 28.5197 131.6251 28.0757 130.8661 27.2077 130.7501 26.4667 131.0871 21.9227 133.1511 17.8267 136.2081 14.5447 139.9691 14.0127 140.5781 13.9447 141.4891 14.5447 142.0901 15.0887 142.6331 16.1317 142.7021 16.6667 142.0901"/>
    <g transform="translate(105 143.534)">
      <mask id="akses-ke-pengguna-e-wallet-n" fill="#fff">
        <use xlink:href="#akses-ke-pengguna-e-wallet-m"/>
      </mask>
      <path fill="#F4939D" d="M21.01,7.0004 L0.4,7.0004 C2.76,3.7704 6.45,0.5294 11.9,0.0904 C18.19,-0.4096 20.34,3.4794 21.01,7.0004" mask="url(#akses-ke-pengguna-e-wallet-n)"/>
    </g>
  </g>
</svg>
